<mxfile host="app.diagrams.net" modified="2023-09-17T08:23:31.260Z" agent="Mozilla/5.0 (Windows NT 10.0; Win64; x64) AppleWebKit/537.36 (KHTML, like Gecko) Chrome/116.0.0.0 Safari/537.36" etag="ads5Dv0cW1TFkgP4-hIk" version="21.7.5" type="github">
  <diagram name="Page-1" id="YDBnxwknyW07D56zSv7b">
    <mxGraphModel dx="1134" dy="651" grid="1" gridSize="10" guides="1" tooltips="1" connect="1" arrows="1" fold="1" page="1" pageScale="1" pageWidth="827" pageHeight="1169" math="0" shadow="0">
      <root>
        <mxCell id="0" />
        <mxCell id="1" parent="0" />
        <mxCell id="xm5GE9OnR7mUz4Kwo8KU-1" value="Device Name" style="text;html=1;strokeColor=none;fillColor=none;align=center;verticalAlign=middle;whiteSpace=wrap;rounded=0;" vertex="1" parent="1">
          <mxGeometry x="70" y="70" width="100" height="30" as="geometry" />
        </mxCell>
        <mxCell id="xm5GE9OnR7mUz4Kwo8KU-2" value="" style="rounded=0;whiteSpace=wrap;html=1;" vertex="1" parent="1">
          <mxGeometry x="220" y="70" width="290" height="30" as="geometry" />
        </mxCell>
        <mxCell id="xm5GE9OnR7mUz4Kwo8KU-3" value="User Name" style="text;html=1;strokeColor=none;fillColor=none;align=center;verticalAlign=middle;whiteSpace=wrap;rounded=0;" vertex="1" parent="1">
          <mxGeometry x="70" y="110" width="100" height="30" as="geometry" />
        </mxCell>
        <mxCell id="xm5GE9OnR7mUz4Kwo8KU-4" value="" style="rounded=0;whiteSpace=wrap;html=1;" vertex="1" parent="1">
          <mxGeometry x="220" y="110" width="290" height="30" as="geometry" />
        </mxCell>
        <mxCell id="xm5GE9OnR7mUz4Kwo8KU-5" value="Password" style="text;html=1;strokeColor=none;fillColor=none;align=center;verticalAlign=middle;whiteSpace=wrap;rounded=0;" vertex="1" parent="1">
          <mxGeometry x="80" y="150" width="100" height="30" as="geometry" />
        </mxCell>
        <mxCell id="xm5GE9OnR7mUz4Kwo8KU-6" value="" style="rounded=0;whiteSpace=wrap;html=1;" vertex="1" parent="1">
          <mxGeometry x="220" y="150" width="290" height="30" as="geometry" />
        </mxCell>
        <mxCell id="xm5GE9OnR7mUz4Kwo8KU-7" value="IP Address" style="text;html=1;strokeColor=none;fillColor=none;align=center;verticalAlign=middle;whiteSpace=wrap;rounded=0;" vertex="1" parent="1">
          <mxGeometry x="70" y="190" width="100" height="30" as="geometry" />
        </mxCell>
        <mxCell id="xm5GE9OnR7mUz4Kwo8KU-8" value="" style="rounded=0;whiteSpace=wrap;html=1;" vertex="1" parent="1">
          <mxGeometry x="220" y="190" width="290" height="30" as="geometry" />
        </mxCell>
        <mxCell id="xm5GE9OnR7mUz4Kwo8KU-9" value="Port" style="text;html=1;strokeColor=none;fillColor=none;align=center;verticalAlign=middle;whiteSpace=wrap;rounded=0;" vertex="1" parent="1">
          <mxGeometry x="70" y="230" width="100" height="30" as="geometry" />
        </mxCell>
        <mxCell id="xm5GE9OnR7mUz4Kwo8KU-10" value="" style="rounded=0;whiteSpace=wrap;html=1;" vertex="1" parent="1">
          <mxGeometry x="220" y="230" width="290" height="30" as="geometry" />
        </mxCell>
        <mxCell id="xm5GE9OnR7mUz4Kwo8KU-11" value="Group Name" style="text;html=1;strokeColor=none;fillColor=none;align=center;verticalAlign=middle;whiteSpace=wrap;rounded=0;" vertex="1" parent="1">
          <mxGeometry x="70" y="270" width="100" height="30" as="geometry" />
        </mxCell>
        <mxCell id="xm5GE9OnR7mUz4Kwo8KU-13" value="Dropdown button" style="html=1;shadow=0;dashed=0;shape=mxgraph.bootstrap.rrect;rSize=5;strokeColor=none;strokeWidth=1;fillColor=#6C767D;fontColor=#ffffff;whiteSpace=wrap;align=right;verticalAlign=middle;fontStyle=0;fontSize=14;spacingRight=20;" vertex="1" parent="1">
          <mxGeometry x="220" y="280" width="280" height="40" as="geometry" />
        </mxCell>
        <mxCell id="xm5GE9OnR7mUz4Kwo8KU-14" value="" style="shape=triangle;direction=south;fillColor=#ffffff;strokeColor=none;perimeter=none;" vertex="1" parent="xm5GE9OnR7mUz4Kwo8KU-13">
          <mxGeometry x="1" y="0.5" width="10" height="5" relative="1" as="geometry">
            <mxPoint x="-17" y="-2.5" as="offset" />
          </mxGeometry>
        </mxCell>
        <mxCell id="xm5GE9OnR7mUz4Kwo8KU-15" value="&lt;font style=&quot;font-size: 18px;&quot;&gt;Register Device&lt;/font&gt;" style="text;html=1;strokeColor=none;fillColor=none;align=center;verticalAlign=middle;whiteSpace=wrap;rounded=0;" vertex="1" parent="1">
          <mxGeometry x="280" y="20" width="130" height="30" as="geometry" />
        </mxCell>
        <mxCell id="xm5GE9OnR7mUz4Kwo8KU-16" value="&lt;font style=&quot;font-size: 18px;&quot;&gt;Device List&lt;/font&gt;" style="text;html=1;strokeColor=none;fillColor=none;align=center;verticalAlign=middle;whiteSpace=wrap;rounded=0;" vertex="1" parent="1">
          <mxGeometry x="240" y="340" width="130" height="30" as="geometry" />
        </mxCell>
        <mxCell id="xm5GE9OnR7mUz4Kwo8KU-57" value="" style="shape=image;verticalLabelPosition=bottom;labelBackgroundColor=default;verticalAlign=top;aspect=fixed;imageAspect=0;image=data:image/png,iVBORw0KGgoAAAANSUhEUgAAA3YAAACwCAYAAABD9Py5AAAAAXNSR0IArs4c6QAAAARnQU1BAACxjwv8YQUAAAAJcEhZcwAAFiUAABYlAUlSJPAAAFA0SURBVHhe7d19bBtH3if4r/fJs1AOwUE55LmHejaZhF7PYaSLD6KAACYxxiE0NAfR8AChIN+FgrPwMJmDQ2+AjeTgEin+w6Eytw7lARwpwc1YEyAB6UUM0sAYonFjiMbBAWkgD0TjkrNyiGE6E++aiwSQcJk9CTfZp6+qu0h2N5sveqFEyt8P0CbdarKb3dW/ququqt6jCdghf/7zn/XXn/zkJ/or0VZi+qJWYvqiVmL6olZi+qJWYvraOf9MvRIREREREVGHYsWOiIiIiIiow7FiR0RERERE1OFYsSMiIiIiIupwrNgRERERERF1OFbsiIiIiIiIOhwrdkRERERERB2OFTsiIiIiIqIOx4odERERERFRh2PFjoiIiIiIqMOxYkdERERERNThWLEjIiIiIiLqcKzYERERERERdThW7IiIiIiIiDocK3ZEREREREQdjhU7IiIiIiKiDseKHRERERERUYdjxY6IiIiIiKjD7fnmm2809X7bPf300+odERERERHtFqKOod7RduEdOyIiIiIiog63RxPU+223Z88e/XUHN4F2MaYvaiWmL2olpi9qJaYvaiWmr53DO3ZEREREREQdjhU7IiIiIiKiDseKHRERERERUYdjxY6IiIiIiKjDsWJHRERERETU4VixIyIiIiIi6nCs2BEREREREXU4VuyIiIiIiIg6XBtX7HKY2rNHf8jhnj3DSNxXs02KF4fV3/dg6qaaSbQB5rRkmd7JqSV2J8vvdvytpvPwaAJFNZeaVUTiqNp/5qlBupLHZfMxTa57ShxB2nXuJzDcZFpqTo10umfr0g/z685lzx+3/PjdnMLwRWvuknuntD7n8h8ROeuQO3YpjL7OQiW1gCog9YRSaobNad/Dk7GI38oC1xbS01YPRi+p/5vp6cqp0GwUsGumx2bVWzeRiVFor5VWJuGThetdfoGL6ikic9kajyavbV160Ctw3kn1PyLarM5pinlpFHMsdNJWkoXfp0bRuAidwuhTD8edj8lzvICyNUQF7fVGaUsUmm0F5uLFyBZUxppZN5Fwc6q5iwinfVV3VNbL9WISmqbp08QBNZPa3/0MkvaYdDqzNfmhSH++0+q9jfdtI61oWhKhJ9VMImqoo/rYsdBJWyn3kbnwG0T821JGYkwPEkH1N2kSsU0WbDoCL6BsDUthKIqsKV1p38ZFalNOx9jMiHZIDlOWOyW2dCqm7Bn1JyEVijCtPoSKN5IqnwwieqYUuSaRYT5B1JY6a/AUUeiMNFu4NvdBKE/2JnWmfgXyyrn9M+U+Rfb+B7Xu3pj7BRrTZq9yUouIYx0rXymUBZrqq4L6FeZcVLwzKn3JF13GHwRL+/+b5nRjSxs3p9T8yuSUJmr3J6jRx830vfL77H0gNpPuJr3N352sbLdpsjfbKm+r8dvsnyk3/7Ttq1q/wf5bt7IfUCsEE2F41XvdkyGMlwvMKRT0413dBHPSa/w+c/PYhvu7qgmmakpX2ke2dGPWVBo0TZtJY9Q61eeHnBzOkZsZkTqUkTgeaBPWdCrIuyaVC1wpjH5U+RZ7eql5Xivm7ar8zR7f7Gmt1rnNvHZ7mJphjgwj/Pa4yC0NDS+0N8j79PRiurCQCvVYlqkdjyR7mUxOTmllo+mLqINpO0iuvvYmZDURQIxlRoKayFrU8lHxF4PIcMrfEc2pmVIuWp7vNFWWfaDFR5yXKU+WdZunynbovo3XWE5MZyxL0jYp7X8n5rQTTDxQc5uXPWM6vubJdKxrLiOnkbhIfRWVZYOaqESamM8D02capHF9aiLdWfaDSOvl9+V9UmP9jc6ddW6red2W+bZjU3uf2vdb65XW7cy038TUOI3V3p9GvGpyf9eMQypemY5F7X1r2pf14pqYNnLuUHNK+9iR+bg0G3NseZZ5WUv+WcU5BtRfl5ys56Rzfm09TxwnS9wRmNduidI+q8shnTnGCZu6aaPqe6xTKabUXE+DmGRNyxtIX7QlSvuXtl+H3LEbxnj5qmF1vxSrIhLn1FUg/Sqkalai33kx1Oz4eyZrLKtly1elcCmFlKmJigg2irkpglhnqU+LaZ3lK50clKKNBTF8sHInbkPM6extdc37pqnvQDldmdLEeu4+N0FkhmodprS7znQ38HrlamzDZlc358p3hURGqtb9AKLyYbiURMbx85Umr+V9IaTEeVb+DaamiqnLmcpVYdM+rayz9HvbbYAlL8Lm36euRte+SuxC6FPrPin9Rr0/UrP7+8kQkub55dhVfTemGZVmWM7rZfO8dpJDphRzHPO+WnlnFP66fd7ccJfTWQEF9dbKKY9MIXljnWekYx5sjiXMa7eT5fwfNCKId7CcSzgfX8e8rzpf0vvQmcplpfhvbhlTzXT8TXmJ+fvrtjhpmL6IOl/HNMV0v1gpdNbvl2IUkPST99OQ+J/ypLtcWHQmgsTxUtHHC7+pb0E0VykUufdVvmWxoIKaudD1emWdrhdnywWgrRxFijavcKeUXVVzbsokphrD/ZuPucF0cUGk2mypsieY00QqNLc1zUBEZlXJDL2YaOYihiNzZcTa7KrKgQmVQZoHQnDBvV+9reXMeLnJq+vgcOWcFIW02dJvEOfqgPHOVJC0XrAJl9dp+r1tlkHLpryVQq5ZqXnkOoYN3+j+3iTzeVJJS6YYy4EN2sf9AhbVW8u5YEo75QtP4nwqfKHebgFzHuk9browc8e5GujMHCutschoriwwr91G5tEwTZX/A/5yWcxy4U1XK+8rHU/jAsCGB88xHf9gYtYUe8z5Xq3+8E2kL6JdoIP62JlP3AaFTgsRaGRb7IajHw7A7VhACVrmu9zlImdZsVDOTsv9YozJ1Nfli4ItANJOqlTQNxvUrelDZx4444xfpFwzF/wvlNa9NR3Qg/vc6p1iynjXm+7MBaR1Deyh+lPUGuGspGpbS/a7y4U0yx2CMlHBK+3TS6PoKZ9jYir302i/DLo8spupsm0m48WG7jA0ub83q3J1XjgtH9FQ2u/sm9J2nvRjuHzeyJF8K+dI/f5ni1sfAzdiRJz36m0tzGu3Uc18zHThu+pimilO246nMSrqxloOlOSulWK9Q0ubuhVOoYn0RbQbdNbgKQfCpkKnD5HL6r2dZRCUNnmWU80mLLQTzBX08p1XElwIvW66gPJ6rHIXwMYyWEKbPIeobY+l+a6JmMx38pq9w7Aj+1tst7l5aIW661jjLjbtBHkn1dTEzKTUFLhyEcF8t7fBBRFzAb8TCsfMa7eEZdRoy0Ud8wWl9VxkJ6Lt0FkVO5lxnTM187jkdA8uhynz3blSO3zzEOMtVOmHYp82d6WKtpipaa69SaT5eUuWtvgPC1GYL1c89D6m1WRzVfPdolK6d256uMXM/YdsU/3+Gdun/ohu8k6eKV01cYdhJ/d3+XxwiqFb3FeUNsuLCXUuOKUNc/8j893YeiMcWgr4ljvrO4t5bSuZ+ms2slXPtCOiLdFhFTvBMlS4A9MQznpnXHM/uxbh3Z8OZElHxt2H6iZxshmvr5yemmZuElWV6dXot1Bmu3pu7jdTQ1WzE/Mw5hssiJn7yVSz/oZN9Zlomql5ZgdckTc39XV6uH3unfWkq9bsb2v/pyb6XOkDs6jCs6lp6fr6UdF2qTzg2TyYjqnZpbnJtt682Z5OjW4MlQsK5n7oO4N57TYx5yENmbsU1InTevNx5wtdzao7cIu57PeCv20uQBBtt86r2An1C50VlQKHyKDKIym1gLltt3mUONUPRk58xk77sdw1Eax9NuRkbcbbfGZh7UdnHomueDFi6vxdeb6ZeVCeStO8JtOt5a6J+Ey58/omCmKNLqCUmQqK5tHQtlytfWoUPo3j1T79vlzmwZ7k9lrSlbVv3PoKIZvc3+ZBpEwXHczpssK8b60FMnNfp5r9Jml7mfIb67MkTf2eLH3JrQMtVadTW/yzDFaxQ5jXbotKX7Y6d0ZNaccysFK5Kb8tTuv5ktH3c8PHqNbxF5Gs8rD9KMbbpOUG0Y4QJ+iOkauvvQm1np9leGB6Jo6cRPBR1vPcEvOzoWo948f2DJVaz4Gq+6wu2zPvaFuU9n9dDZ6JU5oq6ctQM32YVJZxmNbzbKbSZP5MC55jZ/+NVeeSaf32889pKn9frXPG4RlJhlrnZf1nuVm+exuU1lvTRo6Rw2fkflzX/haq015pPzZ4Hp4+mdJ0o3TpEJtpa5T2saMa507dmCOm6nNc2GAsqRkDa2ybc6ypnc/XjE11t5d5bbNK+6yaOe7X25+1l2s673OIL6U43lT6cpisaXwD6Yu2RGnf0vbryDt2kvWKuJnsY2DvF2U870ScyMZ/WzEsuj44gkN/LP25KWzz37ZKzctqjFooAr6MTBtq+qY3hXLol6R/p72JsNwO+7J6X7LGffz0Jse27dfnmR6zsDHWZ7GZyX5X5fOpRE/rle3d+mHHjWH2q9arzu926V9XpscEczM4M2Obq46Rw2AlssnZeve39237ekt3+uQ+tP/N2BZRkKqmnx81foNc/zY0dafm2Z8NVmEcY8c4pqfTWv01jaa/m48lW4h5bWuZm2FWjepsZn4slPURA7XSoZ4vWR5DJeKLbbmGTbtVnl2VXlXf69Z3CyBqb3tk7U6933ay2YS0g5tAu9iuTl+y6ZFqeiIzy7ar1DwEGL+olZi+qJWYvqiVmL52TsfesSMiIiIiIiIDK3ZEREREREQdjhU7IiIiIiKiDsc+drRrMX1RKzF9USsxfVErMX1RKzF97RzesSMiIiIiIupwe7755psdq04//fTT6h0REREREe0Woo6h3tF24R07IiIiIiKiDsc+drRrMX1RKzF9USsxfVErMX0R7U68Y0dERERERNThWLEjIiIiIiLqcKzYERERERERdThW7IiIiIiIiDocK3ZEREREREQdjhU7IiIiIiKiDseKHRERERERUYdjxY6IiIiIiKjDdU7F7s4cDu/Zgz17DmPujprnIPeOXMZp6kGf/2VMXV7CilrW0VoRmY/G8bK/Dz3qs3u9L2P8owyKP6plqOOtXRvXj2/PSwkU1Lwq9xIY7RFpwDuF3F/UPKKNaDJ+NW8FSxdnkb6v/ivdT2BYruOdnJpB1A5ymFJ5aTPT1E31qZp5uTH17D+El99JYcmeoZfOg6MJFNUsJ8b3DyNhOocarbM8NfjujlaKVb9K1S8rCStXTur7Y/ii2BttH3+aT4f672lE/V7zsk5pCitLSLyfbiK91Nm+nj4cOnoSs1cLDY9JI8Y2ijKN+v+6Nf17aKfs0QT1ftvJBCs1swmF3x/C3g+W4bmVB84uYvGUR/3FSiZa32kPQm+OYuBxNVP6oYDM5STSXxbhPZNF5m0vutSfStZuTWN4aBxp9CJ0bEy8d6NbFqAuzWH6wzQKB6LIXpuA9zH1AWpr9dPXGjJvuHHovSICv7uL+Vfcan5JAYmXfBj9xI1YPouxfjWbSGlF/GpW8eIwekJA/NskQk+qmbKg8dQoUiK+aSK+UWdbT/pqbwWk3xMVMPU/XSGDcZGneo5NYHS/OaMGel8YQ2BfKS8Hwh8sIPQz9ceStSLyl+cQ+30GRXu+XDoPRuJ48GkILjXbzvj+oOUcKq0zcCIGvz1LMHvCh/BxrygfdK7a6auAucBevHw1jOR3FxB8Qs2usoLUrx7H8EdqubV2jz+y4uTDJAKInPWj3uHtPhhG+ECDo6vSGRIPkHzRSGXVaaqIxNEejKJ+WjTU2b7vlpAU6T13B3AfT2LhD8G621+PsY3inNHEOaPmNW89v4d2jDipd4xcfXObsKjF+sWyp+Ja/IR47Y+JOc6yZ+R3BrX4t2qGxV0tPiL/HtAufK1mlXx9QQu6xN8ORLXssppnsnwjqomTQHMdi4tvoU7QMH39sKCNyWMOrxbLq3m6VZGOvPpngx/zaJOzVsSvZj1IBMW6a8U52g2aT18dKBfVf1sw8UDNqGbk5dCiOTXDwe0PAvoygT+Y4vS3cS0o991IXKv97c5lhWbWuVvI3yknJ8upsP63esdH+y6pheV3nJjXHIpMbSirRfXfLMp4as6mqHRWdx+JFKiXORukRUOj7VvWFt40yiXedxdFKWVjjDS+0X2wnt9DO6UzmmLeyiB+Cwh7AwgMRcT/Y0heX1N/XA83/C+IUxFpFL835hiKSLz1MlLFIOIXJ+B1uFDT/fMxTJ/xoPjJGOY2tG5qO4/5Eb00AQ9yGD9RaW659lkUkdM5iEo8Ysc2el2MSNmy+EVEZr1Do9Bz9Ot5Ng3bQt0HAxCVNqQuZ2ru15UbaczBhYkRf0ffuewc3fC/G8eFISD31iTiW9Kkn3ajDqjYrSHzaQx5Eb79z3XrASciQs3UJ+kNtTVe/Yv8lAdd5naYd+Yxd0m8noog+Iwxq1oXvEdG4T/gw8r3D9Q86nRdP5/E7Nse4OYkxn6bw9r9FMIjU8i7Qph9N7Th5g5Ehg3Er5UlpN55Gb6fGv0rZB9f2TfYqArKpjB70BNKifcpjD5l6i9h6eMimxrLv51E2mFFa9cn9T6mJ6+Y/mhbb8/+wzj5fm7TfTqIWuYR9brGCyVb6okAQqfE66UkMub+YmVFpC/OAa6TOPy8KkxZ4o/Jj0Vk3hfL7e/R48qen/qMvpHlfusrSL8q5vfY+30ZsW7PnkNV/ZLzvx2oGdtaYe2rFKZ+5cNeffsPY/xiKR5byWaO5T52+v7owagsW14aNcZs2HT/QzeGX5FV7jTSn9uq3A33c30rX5p+oxyT4pcnMfuZaQc38XuK12dx8pel8Sn2wverKaS+4rm53dq/YreWReYjkYCPjyIg2yx3+xA4IV4/ilsHDmhoDSu35jB5OgPXsUmMmvpMFfMZZMRr6Lm+qn53Fv1jWMglMTPC4v7uISrsb8wiekAE5dNjOPxSBImiC2MfzyFY6rtEtFHrjV9ywJ7ePgx/UEDfa0ksZJIY672NyaAfh9/PiwW64X9jAcm3/eK9HxOfLohlgujVP2zWBd/QBFyYRfqGvfSzhuzVKVFsGkNwUF1rv5fCyyL+VdY7j+mjXUi/5kNvvQGGiHbQ2tIisuLV81wv+/tsqVL8SCF5w+Ge3Z15xEUB3/N6oH4/rb/kMPULDw69lkbX0WnMZ0Tseq0PhQ+G0TdYaiXTjYGDQVEQSyJ7S/+UYe02FmUlQpTOMnnzNhSweFXEwhEfBrbhVuHaP07B3zuMyaU+jKVEvD0vtvX3fgyfX1RL1PCEH5Mifk8MiveDE0iK374wUh2p16t7v1dEfiCVv12pXDa1n2srXHoZA/uHMXNP/cb0NEa70jh5sBejF1X0r/t71pD7zSF4/KKy3TWK6bT4W2oMffdmMNzrx9RNVu62lWqSuSPk6httwuqfxvRlwqlKK+7SPEu7eqXURr7W1PtKXLv7V7Ww8jC1q3+YlI55M1ZzRh9Kubz3THbD7dfp4dFM+lpf/FrWksfldwa1eEHN0q1qC6dcYn5YS35nzHHsY1fqWyTSr251QZuQfUjtfWDE/DGxnOvNBZXOl7X5E/L77esVi96Y0DyO20qt1kz66lib7WP311XtbiaqBWT6doW0pNN5sIk+dvUn23nXoUq/p7asFpX712E/3v2D7NvosfZNt8cfYfGc7BPm0SZu2HLUgrFsOQZ9fUETlRVrehBpxAWX5pLbcKoUq4Sm+rY5KfVhazBZfu9d7cKQmNc/oWV/ULN0pfEarNtRnaa2so+d4pC+m97PgrGNpnV8N69F1HG2RvlVLfu2RyxrHpOixu/Jx/Tyk+dte9lJ7SfXhLZg2zRqnTa/Y7eC9MVp8RpG4GDl0kzXwQBEwQTp8ynIa9jV5KiYMcTOmqcxhA+4sfT7URwKzSLf5O1pejh07etFn3qPx7rq37klaso641cxg+RHgOvMOEKWJuFd8AdPwv1sAYv5dVz57PLj8Ksu4MM0sqabdms30piGC+FBn5HO76cx92HRYb3iK34eRmRQbOvFDO/a0Y6Y9MpmXbbpbx/FXv8klg5GMZ+Lb3nrCjkqprX8YJ4CcD8UI2N7EXjdA1yKY97SFLKAzMU0MBRBsO5o0Tmkz+aAkXGc/LktR30miMgpEfJ+I2KTDGn7BhAQ35W6sVhu+l34IoNi/ziib4ht+CRXHlV1JZ9FCn4EntvoPVo56qTTcVXTkLuS/9/JIHEV8L8ato2G7kbwFRnFd8CTblsLjXXsZwfFa3OYLboQfd3e9aQL3pciYk+nkbheP/rnrsTEVgQx/mv7aPNqPxWnkL7Bu3bbpb0rdt9nkBYFHRwPwG8ecrfLh8Cb4qS+FUNaPfPGyi0KNGMYO2WeYriQu4u7H4eweukkwrI/lVq66xE24ni4FZB4PYI59b+ceD9tbhJCtBHrjV/3lpAQL759Dk29D0zg7hcLiA7aMu4GvEfG4cEsUtdLxaU1ZK+Jyqalb0xBFJSAvr8+QOZ6xjYtYUXWSa8tocB8mXaAfNzBgmz2JafUDMLPi3PnZwFE/7SMu59OIFCzX/zG+V6ylx/Mkyjkb0MTwHbgGRwV8SMtKlymgr2s7FwT1aOR+o8MkHFlUbag7F7G7aq4kkXhR1k9yaOgN0n3wBcUx/VyXlXgisjfyMAV9GH0Wb/4bwaLeuVyDYs3ZoH+AAb26QtugPhOx+OqJtNjLFaW8no3HW9v9S/t6h3QB+7ZdmK/Wh4dsq79XK1wR4/+WP3W/lkxfb2i74vM14VKs88qRVEJlxvwOJa/rv6OrFivvgX3ODbFtlF37naEXH29TTBu9xvL1JrMt5glp+YVVqp5ASbKt6KX/xjRvyv0aeOb5dQ5SmmkkbuJkCayFM11IqktqvfysReLbDpAdTRKX+uOX000TytpqimmTj1q4XjSaI6pmmF6zlYeuGB8l3W7qqfd0fysk5T2/a60maaYP9zWZvRmcG4t/KlTE2HVpK1u8zfZ/Lg6Xddc5y7UXPpSTRGHLpSb6S2ek83zKs3Cy+zxRx3jRlNpXxtN1FXzThWnIn8UUetBUguV3qvymzl+Na/Jpo4mpdjomB4cmoRuS1NM1WwVb29sP1ubYqrtc1jeMpW33+n3lLa7wWTJl6iV2viOXQGZS2nxWuu2+QRC/UDxNwmkLY8uaMQN90H5ulS+gtHd6xFrARKfmzqjOlnLYHL/Ibz8VprNknaLewmMhxIouiKYOxOE58Uopo+Jqt3NSUTeq9zVJVqfVsWv9fIg+KooBnyURkasx2iG6cHoYOUB6a6njIY9ouAkS3k1JtOD0Il20mO94pyKI+QqYO7oOBL31PyyLpGoxcvKKlaNGQ6WsaKPx9ELN9N1HW74R0Tp6GoKGf2OWR6Zj/PAiaC1FYITl1u/o+U5t+gQTyrTxAFj8a7n/IiI789+IUpXX+YQF5/2ebrF93jgHwRmP18CbmWRLLowfLASv1qp67Ee/XX1R/2lLRQ/F7FcvAZLdxHXuZ+tXHDrD/+PYH7Z+XP6VPdh5OI7XhAv/TGI6rbz5+XUlg+t353at2Kn2jbj1Bhi9lvl+hQVBXJ5cs9h7sp6qlkFFG6IF9cAeksBfd8wwsfF63uzSFVlEhUr11KY+zKDxcd76jdBoA6Rx/SLo0iJgu7EpRgCekblRujcHCIiislRMqc5mhNtxEbi15NGBp294xDP7iUw/FMfRj+yNMJpivv5kKheziGTKxrNMPtH4Tf3jREFAznKWvKW03eLwvMv9sL3y1lxthC1iWdCiJ6VZ0sKo2/YR211wyMLmtfSyNVofobvRQXlsngd6WNe3oD7SBjhUnNM/ZmcTT67ziUK/OIln1uCeUxLg3wcSw/6/OOVC1vdA/CNiCMqls/lZf86nyqjudF3UGTIV7JIiEpNHqPw1u3bt3XkRX8ZG9OfO0S/+wV9RNbtlUf8vGw6GcbooKpqrXc/27ie0qM/8l8Z/7e4M4dDIt85/GG96N8Dl2wWKyrdSw7n29q1cfTsP4Rx86N1qKXatmKXvzyLDEQAGVId/B14Xojod9rSl5rv2F+4OIMZkfpdx72mDqjdCL4Wg1dmEi9OIeeU/kTBKvLrWf3OTvT49lwtolZaQ+6dCMZvAt4zs5g0dzp+IoCYenD55L+ZbjhUMJHdhuLXkwGMHgeKH8xU3YUoXIsjdWcNA55K1NI1cyV5nx/BIWD2yiQS78mBAIIibZvsO4ywKFAVT8cwZ1tv8fI0Jq8VsHbQZ/0M0Q5zH4vpD2vGpTFMXjIXabvhG4qIsy+FsbdEpa/qHFlB5pxI62KJyLGA+JfqesKPgIhL6as5pK/HkXeF4ffWimomXT4MnxFR41IMM+U+vsotkee+V8TSMz74ynf+XPAOikrGh7OIXjb615ViTm//sPGZsxnghB8DTax+S6jYmD8bs8XkAhIiTldXpGoQabD23eMm/VhE+i1VZjkXQbC039a9n63cQ2EExS+ZPDdnO1eKSJ2bREbkO36vLfpbfk8XfMGoOFYpxH6XKQ9+o/sxj9nT0yh+6YbvYemY2g60HSRX77wJql9IwyFSVftv07C7RvthjxZ6M6bFzpqnCS0y5DbWeWBMW7C3DxeW/zRhDHnv6tVCpy5oycyCtpCOa7ETAc2tzw+I9bDjVaeonb60yuMNavalWxVpSQ4h7DSEL1Fr4pccnjok+wDvC2rRxLy2kElqM6/49X6f5sdwlB6Z4H0zLpa5bfSfc+xjZ6j0ozMPXW1SWq/Lr4XPJ8V3zmvxM0Ej7olzxDrUN22H2ulrF9hMHzszNcw6XBFt3pKnV+I39nm18ClVDjgV1rz7jO/1/uv5cr+xktI6AyfMZQen6YKWtTxDpPPo+0ZMzSj1f/OIuFazf5tT/Pkhq0UPyPW4teCZuDYvylTJ82HNr8eaUNXjVeTxFFUIfbuMPnWKGra/an65j1gzfYBLfcECWsTxmJqmP2Qrj4ixx2RRJoyOiLKky6XH5fp97OSjauQ8rzaREOXJJfWtpX3l2FetevsmTgTL6dZ9PFmVbtezn6197AzlcQaeD2szKaPcq/9GMc/6+Kcav8d0vrlHolo8Lf6WmtHCz8vH6Li0UMKpLyy1yo7mGjIRyMluNTNhJLImOlsup8L6d5QGISgFZqfJfSCoRc6LYG6OC3YPsqJAI06IA6oS2OznqO2Ujl8VEQQnZMFbBmB7xmJWDpae6ufD0EOvVvraTPzSLd/W4qdMGfmBsBZN3TZlrtJdbf6UuuCEkJaUpYM6FTvtu6QWln8zDYJQRaw3KWJfab16gfhMUrvNSt2OqJW+doWtqtiJs2LxXaNA6TI/60x5kLmgjR33a72ygKvvT7fmHYloMxnn9dYrP1inZioS7a30W5pSeiam+SKUXa3489cH2sL5iBZ4Vhbyxd9dvaLiPKNlHS6u65UbfT32vFldLKva7xup2DUx2Qc7+S6rzZQu8Ms0dDymZT83fm/9ip1QmNfGSjcVjiWN761bsXOYRCz2Hx/TLtRIt7om97NTxU5a/iKpRY971W+sle8ITr9HeZCZ0SJHevX8T1boeo+Ic+0GC87bbY/8RxygHSGfRyPt4CbQLsb0Ra3E9EWtxPRFrbR70lce05459F6fQaCTWvvdmsbA73qR+SDQuL8i0Tq0+QPKiYiIiIiqrXyWRrLHg96Oqh2tIHcliZ7nelmpoy3Hih0RERERdZgVZFO3MfruaGeNbvp9FsmlUURHOmqrqUOwKSbtWkxf1EpMX9RKTF/USkxfRLsT79gRERERERF1OFbsiIiIiIiIOtyeb775Zsfuwz/99NPqHRERERER7RaijqHe0XZhxY6IaIP+Yayo3hG1xn+Ydql3RESdhRW77cfBU2jXYvqiVpLpixU7arV/H/t79Y5o6zB/JNqd2MeOiIiIiIiow/GOHe1aTF/USvY7dryzQlvlX4z/R/WO6Ypag/kj0e7EO3ZEREREREQdjhU7IiIiIiKiDseKHRERERERUYdjxY6IiIiIiKjDsWJHRERERETU4VixIyIiIiIi6nBtXLHLYWrPHn1IXqdpr/cQXn4nhaUVtbiSe8d5+dLUs7/6c/nfDoi/9WDqH9UMixWkX1WffzUt/ufgs0n978OfFNQMandr18bRI9PDSwnUPGr3EhjtEcfdO4XcX9Q8oo24M4fDegw6jLk7at6mrGDp4izS99V/pfsJDMt1vJNTM4h2TvHisJFv1p2GkTCnYV0BcwHj74c/qp2nlr5/6qaa0YyVJaTeeRmH9veo9e+F7xcvY+rykkPeXr8MYp6GL1Yee9LxSrHqVynn8o7JypWTld/f9vFni4+n+r3mZY3ypy1NizSXeD+Nxt9YZ/t6+nDo6EnMXi00PCaNGNsoyjTq/+vW9O+hndIBd+wCiJyNIWaZJhD4uweYPz2MvudeRqoqYwDCHyxgIWOb0nGMe2F8bqhSWO991i/+LWJxySETWVtE5kPA5XIBH2axpGab5T9Pi3898O13GzOo7XUNRhE/5ULxk1Gc/L1T4aGAxOkxJIpexD6cgPcxNZtoAwrXE0j3e0SUSGP2cl7N3bjixTD6QplNZ/JErRY4Yc+/zVMAbntsvZNB4qo4V/qB9PkUNn+2GNZuzeJwbx+GT2ew+tyoWn8QfT9kMBnsQ+9LcyisqYUtnMog1ing7lLL7gL7/AgOideP0sh8b8xytoLM5VnxGsbooCgfdYztPJ5FJH7dh9Eb64nUDtt3zIfV/CxOBvZiQFS4d+4WwkZ+D207+YDynSJXX3sTslpU/3tUvHN29+Og/nnP2UU1R3zqjPGd0Zya4eD2BwF9mcAf7hozlue1iFzXqQVt1ZhTkYtqLni06Jkx8RmPFsur+WUPtPiI+Kyr9nbSzqifvoQfFrQxl1zGazuuqyIdefXPBj9WaYTIRqaPfxgrlqfaFrVYv4wvcS1+Qrz2x8SczXmQkLEvqMW/VTNoV2kuXbU3I43Wz4udLJ71iM+NafFERLw65bmG9X3/Xe3CkMynQ1q8oGaVrWq3fxcS+Tw07znzmdm4DNLJ5L6Tk5PlVFj/WzDxQM1x8F1SC8vvODGvLatZ7W2Lj+e3cS3YaB+VyocjcfGukUbbt6wtvGmUS7zvLlaXVZtklJE3ug/W83top3R0Hzv3SARj4jWfyKzrql7v0CjECYn09bxxO7m7F74XxOu1fNUduXwuiaJrGP4TfkTEWtKf266VrN3G4iXxeswLjzGHOsVjfkQvTYjjlsP4icod3LXPooiczsF1LI7YMd6FpU26lUH8FhD2BhAYioj/x5C87nhrgOghl0cmIXLz4z5xrgT0PDf2aQabPlvu55C+Kl5fPYnQM8asii70vjKO8X4gdza98SZqu0j3wQBEpQ2py5maTe5WbqQxBxcmRvzoVvOolbrhfzeOC0Minb41ifiWNOmn3aizB0/pehSPy9dba+sL/I+o17XSp9zoPSiqZbeyWLqnZukKWLohMhlZaXtiAL4RIHMtZw10X4mMSLwEPX0ie6BO0/XzScy+LY79zUmM/TaHtfsphEemkHeFMPtuSKQMos1YQ+bTmCieBuF/rlsvMEVEBJn6pEZ/XUn1A/L91Ohfsddr9AEyolURiaN70BNKifcpjD5l6i9h6eMi1vuG/NtJpB1WtHZ9Uu9jevKK6Y+29fbsP4yT7+fY3JO2zdr1JGK3RH466EN3t6jcnRAp/jcJpOs2CVyH75ZrlBU88B0BXE88wDI7DwFPBBA6JV4vJZFx6Ooi41D64pzYYSdx+HlV8qnVx+7HIjLvi+VK/Rp/6jPGOSj3W1fjGPTY+30ZsW7PnkNV/ZKNcRGcY1srrH2VwtSvfNirb/9hjF8sxWMrSx87fX/0YFRe+L80qsfbzfc/dGP4FVnlTiP9uS2hNtzP9a18afqNYrv7fnkSs5+ZdnATv6d4fRYnf9ln/E32X/3VFFJfrat0Tlugsyt2d24jK19PeNCrz2jO2tKi/jnPc70otQz3PBcQ/6aw+LUpEYqCTvZyqdLmgnfQLxJ0FoumtF74IisKbX4EnuukNuZU0QXvG7OIHhBB+fQYDr8UQaLowtjHcwg+qRYh2qi1LDIfiQz4+CgCMj2pwio+ilsHPimRA/bIfkAfFND3WhILmSTGem9jMujH4fdlu4Ru+N9YQPJt2S/Yj4lPZf/hoEP864JvaEJErVmkq/pDrCF7dUoUm8ZEAVpda7+XwsvPmdc7j+mjXUi/5kNvvQGGiLaMSJfX5kS6LPXZ6hZpOCJe5xC/tsna1pNeBGS/sffDOPz6HDJfrVQVzL1nNDz4YgYBZuVCKX6kkLzhsO/vzCMuCvie1wPwqlmO/pLD1C88OPRaGl1HpzGfEbHrtT4UPhhG32CplUw3Bg4GRa0giayo1JeVWkMhg0zevA0FLF4VsXDEh4FtuFW49o9T8PcOY3KpD2MpEW/Pi239vR/D5xfVEjU84cekiN8Tg+L94ASScpyHkfWUVJ117/eKyC9Kq/nblTTc1H6urXDpZQzsH8bMPfUb09MY7Urj5MFejF5U0b/u71lD7jeH4PGLynbXKKbT4m+pMfTdm8Fwrx9TN1m521aqSeaOkKuvvQn12huvastLSW3ieZf4u0sb+1OltXHdPnZ/XdXuZqKaCNx6W/ukuX+K6mfnMbWxX/2T7Ffn1y58rWbo/e2gTdxQ/9eWtfkt6jNDW69++rJaFcdWZFD68t4z2Q23X6eHh0wrjfpCGTEEWjhV6YVSmlfu41u2rCWPyzQYtPUDWtUWTslYF9aS3xlzHPvYqT4fEOlXt7qgTchYZ+8DI+aPieVcb5b6FMs4Jr/fvl6x6I0JzeO4rdRKjdJVJyj1gas92dKvSpc4nqyk19K8oQuaPQWuuw9fIamF95nW7+rV/CMRLZZY0G5/5xTxS2WQBlOH9jcqbX9t4vfL+OHw++7+QY5TYOv/aI8/wuI52SfMI8pMtv1bMJYtx6CvL2iismLtr6aXt1yaS26DefyDpvq2OdnI8VR9M/sntOwPapburtHXTCxv3g6j/GlO11vZx04p7WfTdza9n4WqPnbfibKvOs7Wc2xVy74t+7sGKmXgWr8nH9PLT5637WUntZ9cE9qCbdOodTrgjt0kfPptXfP0KB7vHcbU9UcRPJ9GdLC6EeSk1/4ZMf3to9jrn8TSwSjmc3HrHRnVzy6fW0Lp2lD+ZhzoD2Bgn5rR78WoeEl/XurRV0D+sng54mP/ug7Xta8Xfeo9Hutis1raAitIX5wWr2EEDlYuLXcdDOh9g6tG/CtmkPwIcJ0Zt/UD6oI/eBLuZwtYzK/jymeXH4dfdQEfppE13bRbu5HGNFwID/qMdH4/jbkPiw7rFV/x8zAig2JbL2Z41442pPaomNYRMVeuJkS6FGfLEVOfrS4fArJJ4NVZpMx3czbimSAuLD1ANhFF+IBbnG9LyFyaxXjoEPr+TpQNjk4j59jks8EoikPuXZpfeBF4XZRsLsUxb2kKWUDmYhoYiiDYr2Y5yiF9NgeMjOPkz217SByLiDiuxd+I2CRD2r4BBMR3pW4slpt+F77IoNg/jugbYhs+yZXHP1jJZ5HaVCupdRxPfYRWwP9q2DYythvBV2QU3wFPum0tNNaxnx0Ur81htuhC9HV715MueF+KiD2dRuJ6/eifuxITWxHE+K+9tnNB7afiFNI3eNduu3To4w5mEE9ncfu7u0j+a49jULU87iA1g/DzIgj8LIDon5Zx99MJBKo6UKt+dpcWcVtPf3lkU6KKZ660dQ3Af0L85eqiUci5s4iMWCTy3OZvr9NOKiDxegRz6n858X56s4UIou8zSIuKGo4H4H/CmKWThdU3RTy6FUPa/Ayue0tIiBffPoeenQcmcPeLBceLWPV4j4yL+CUKxddLxSXZ3E0Uny19YwqioAT0/fUBMtcztmkJK7KUfW2pxlDwRPX5XhrD2CmnSRSWyzW4FWSuyAhsvQgiC5dGk8A8Ylc22z9JeMQF74sTuJC7C+2HB7idS+KC3I59sjnaOHxHppCvSuc+jDpuv5qOeysV0V3GMzgq4kdaVLhMBXtZ2bkmSmYjfltFwEbElUV5lbx7Gber4koWhR9luSmPgt4k3QNfUMTEy6UB7IrI38jAFRT7Xj6OqpjBol65XMPijVnrBfd1a/54riwZYyh4e6t/aVfvgD4I37YT+9UyyN+69nO1wh09+mP1W/tnxfT1ir4vMl8XqpouVxRFJVxuwONY/rr6O7JivfoW3HugL03bQN252xFy9bU3ocnb0jY1m2L+cFub0W+du7XwpzWaFalHG+jNC1TTgMgfrQP53v2dX3xHSEs+0LTlP8rhmG3NSaht1E9fFXcTxlDXrhNJbVG9x4GotsimA1SHTFv1mswZzZWMNFhrMjeRkfFHzmumiVFTTTF16lELpeZtqmmb+RExjZvMyYlxbjvVS1edYl1NJUV+G6hKc7bJ1pxr3U0x6/nrXS1+TDZHNuf5GyuDdIrSfq1PNUU0NYVdPCeb51WahZfZ44+KZ42m0vEzmqir8peKU/qxeJDUQqX38pi4rPGrees/nnXTmEOT0G1piqnKpnh7Y/vZ2hRTbZ/D8papvP1Ov6e03Q0mS75ErdTZg6esx2O9iJyNI+QqYO7oOBKW0S+Vn3kwjDwWvy6qKzVB+DzWa3Hu5wLwIKFfPVr6fBYYDMDLQTY6170ExkMJFF0RzJ0JwvNiFNPHRNXu5iQi7+XqXKUiqqeAzKW0eK3V7GcCoX5s7Yh/jjwIviqKAephw0YzTA9GByuNx11PGS0ORMFJlvJqTEmEGOeoRQo3UtDPlhrNNieOifRanELiqn0goObkfiNH6qsziuIjboROR/VBKWZv2R969DBzwz8iqtxXU8jod8xEuejjPHAiaG2F4MTl1u9oec4tOsSTyjRxwFi86znjkVLZLwrAlznES+Uvlwf+QXFcPhfH5VYWyaILw7J11TboeqxHf139UX9pC8XPRSwXr8HSXcR17mcrF9w/k68RzC87f06fPg2JJWsR3yEfF9Yfg6huO39eTm/XHWaHttDDU7GTngkhelaeAimMvuEw0lu38UiDxBe3sVir0tbvw7BI4bmlFG7fFEn6YF/95gjUxvKYfnFUpAYPJi7FENAzKpHBn5tDRB7j02OY5mhOtBGqbwZOjSFmb+qjT1GMh2ThZA5zV1QketLIoLN3qiKTfgFi+Kc+jH60/kKn+/mQqF7OIZMrGs0w+0fhN/eNEQUDWaBNOhZoC5j7xV74fjkrzhaiVlB9tiDOi3P288SYoq/LJoHibPl9sjrfboJLpPGipUmyg7+sYFm8BJ+pXYR9GLmPhBEuNcfUn8nZ5LPrXKLAL17M4xZUyMex9KDPP165sKXKXymxfC4v+9f50KuXv9zoOyiOyZUsEqJSk8covHX79m2d7l5RqRSvlXEVTO4XjFHZt1Ue8fOy6WRp5FhhvfvZxvWUHv2R/8r4v8WdORwS+c7hD+tF/x64ZLNY+bgwh+aea9fG0bP/EMbNj9ahlnq4KnaC+1hMf8AjLo1h8pL9NHCh1yuyj5uzmL0i/vf8gEOlzQPvMfk8uzjS14DRA9tz5Yi22hpy70QwLirn3jOzmDR3On4igJh6cPnkv5luOFQwkV3+8iwyIp5MDKkBShx4XoiICpcoNFxSA5M8GcDocaD4wUxVi4KCiDepO2sY8Nj68zZzJXmfH0ER82avTCLxnhwIIKgXksv2HUZYFKiKp2OYs623eHkak9cKWDvIAaKoRW6lMCvyUtebAfhqnSz9QURkvl2+c7Q+7iMR/WLd3KsRzH3pUMBcWcLcOeN5k8PP81KtxRN+BERcSl/NIX09jrwrDL+31oEy6fJh+IyIGpdimLFXqG+JPPe9Ipae8cFXvvOnHin14Syil43+daWY09s/bHzmbAY44cdAE6vfEio25s/GbDG5gISI09UVqRpEnF5VbzfsxyLSb6kyy7kIgqX9tu79bOUeCotUX8TkuTkULPlJEalzk+J8WxPH2xb9Lb+nC75gVByrFGK/y1ife/pjHrOnp1H80g1fpUMttZq2g+Tqa2/Cxtq31+xjZ6aGZoUros3b24nr/eyM7zA/RsGs0idFfN7aBY/aSL30VX68Qc2+dKsiLckhhJ2G8CUy0pdzXyjVr63hEM+q/0qpX4lUiGshOfT0vqAWTcxrC5mkNvOKX49J5sdwlB6Z4H0zLpa5bfSfc+xjZ6jELPPQ1Sal9br8Wvh8UnznvBY/E9REEVc/R6xDfVOrOaerztJsH7jFs7LPlkubyNSPsqU+q6X+VaXvD5yIabGzztO8Ka3LmO+XaVx8xn0gqEXeNpYZO+7XevX5Xi3yR3P/+1IZJKBFbN9bNf0ha32kSAcw4kFzRcBS/zePiGs1+7c5xZ8fxD48INfj1oJn4tp8ZkFLng8bx8EVqnq8iiybiSqEvl2W8Q3UsP1V88t9xJrpA7zB42mPyem4Fh1xi+136XG5fh87+agaOc+rTSQWtIUl9a2lfeXYV616+yZOBDWvelSH+3jS9lgCYR372drHzlAeZ+D5sDaTEttZ+o1invXxTzV+j5hfKi+5R6JaPC3+lprRwuqRZKFEjXEtqCUezoqdSISL7xqJ0GV+PopUem5OvUpbqfPqYPWzdah91ExfIghOyIK3DMD2jMWsHCw91c+HoYeeTFtOBfDVzISRSTbRWXw5Fda/xzKIyvJtLX7KlJEfCGvR1G1rnBKRZ/5UwKh4qcGc6lXstO+SWlj+zeF5YGVivckz4fJ6sc+rhc8ktdus1G07p3TVaZqq2In8Vn/WoquJfL6UhtUFk8rFitpT1bqXxXlzPqIFn+8tX8B1PevXwqcuaAuVErZSKoM0MTU1OEZ7KW17U0rHyXwRyq5W/PnrA21B7PPAs8bgNPL5gYETM1rWflFdJ/a5vh573qwullVV4DZSsWtish/P77LazIlSvHVr3uMxLfu58XvrV+yEwrw2NmRUknAsaXxv3YqdwyRisf/4mHYhUyeVNbmfnSp20vIXSS163Kt+Y618R3D6PcqDzIwWOVI6t1xa75GINnOjVkGaWmWP/EccoB0hny0n7eAm0C7G9EWtJNOXKHir/wH/Pvb36h3R5vyL8f+o3jFdUWvsnvwxj2nPHHqvzyDQSa39bk1j4He9yHwQ2LWPy6Cd8dD1sSMiImpnbwUew8Lr/xXu/dv/Gv8kyt0/rP4TfvzPvEBFZLfyWRrJHg96O6p2tILclSR6nutlpY62HCt2REREbUJW5H78T/8vfj1zD3//r77AE8f+TwTeuYP/7X//Xv8bEZWsIJu6jdF3Rx0Gumtj32eRXBpFdKSjtpo6BJti0q7F9EWtxKaYtNW++39+RPB/vYv8Xecx9Dx7H0Xqf9mLv/svH1FziDaG+SPR7sQ7dkRERDtM3o2rV6mT5N/kMrxzR0RETnjHjnYtpi9qJfsdO6KNkn3qZPPLifh/UHPq+7cv/QP+5//hCTzyN0aMI1ov5o9Eu9Oeb775ZsfO6qefflq9IyLqPKzY0VaQA6W8MlOoe7fObGDvf4EP/9Xf4tmfsY8OEbUvUcdQ72i7sCkmERHRDvqXf/8I/q8/r6n/Nfbln1fx3/zLp9T/iIiIDGyKSbsW0xe1EtMXbRXZZ06Ofvn//dhcWvrnj+zB95/8d/hnbIlJG8T4RbQ78Y4dERHRDvpPa/+EZ3/yqPpfY//tT7r0zxAREZmxYkdERLSDHv3ne/A//rz5RxX/Tz9/XP8MERGRGSt2REREO0iObnli6O/059Q1IpeRy3JETCIismPFjoiIaIfJ/nLy4eP1KnelB5Szbx0RETnh4Cm0azF9USsxfVEryIFUPrz6Hf7dZ8vlkTJl/zvZVFPeqWOljrYC4xfR7sSKHe1aTF/USkxf1Co//mcN//edb/RHGvzN3/yNPlCK7FPH5pe0VRi/iHYnVuxo12L6olZi+qJWYvqiVmL6Itqd2MeOiIiIiIiow3VGxe7HFeQvT+PkUR/27tmjX2nq2X8YJ99LYWlFLaNbQ+atHvH3AUzfUrNqymPaI76rZwr/x/VJ9IjvHHgvr/5WW/63A+L7ezB1U/4vhym1PVVTTx8O/WoKqS8tG0jt4H4Koz3yOA0jcV/Nc1RE6iUjPU1+ZvR1IWpW7h0jFhixoo0UM5j6yBzrikgclds6JSIa0Vark086TKXzpXT+1Jp69h/Cy+/YywDC/QSG5TJHEyJl12Z8vzUPaLTO8tTguzvanTkclr/xVyk0Kr2sXDmp74/hi2JvlPb7O+0aRZpPh/rvaUT9XvOyTmkKK0tIvJ9uIr00KE8ePYnZq4WGx6QRYxs3Eeub/j20U9q/YncvjZMHH8dAcBaFJ4YRTS9gITOP6aPdyJwbRl/vKBL31LLogm8wDJeotMWvNaik3cogLip/ntcD+O+9foRdotKWyIhP1pNH5mOxRP84AgfULKk/hImzMcRM08QLbjy4Oonh/QGRUbFS0FaeDCJ6NijepDB2PoNaR2ftWgyRT4pwnYph8uddai5RJxOFh55DmLzPmETbxQWPLX+MnQjof/Ecm7DOF5PnCf1PZeEPZJ5vm9JxjHuB+dOiDDAkCql/UQtvkcAJ6zZVTUNuUdrYpfb5ERwSrx+lkfnemOVsBZnLs+I1jNFBUYDqGAFEnI6paQq4t+roFpH4dR9Gb6ynOuawfcd8WM3P4mRgLwZEhbugltx+G/k9tO20HSRXX3cTfljQJvaJZVwhLV5Q88wKcS3kEn8/ENWyP6h52qIW65efEfPUHCeLZz1i3R4tljf/36VFc8b/HeVjmkdsr+fcopqR1aLyN4zEtQdqjoXYPlF90DB0QburZtH2qZ++7moXhuTfvVr081U1z2R1UYsekOkoos1/p+YRmTSKX9kzxt/rxpRtp2LWmXrRkdpBo/TV0XJR/bcFE445p66Z8+f2BwF9mcAfTDnstyrfrZUvK8b3B7X4t2qG0J7nbGvI3yknJ8upsP63esdH+y6pheV3nJjXltWs9qZiH+qXDZum0lndfSRSYHxErLNBWjQ02r5lbeFNr35cvO8uag6llqYYaXyj+2A9v4d2ShvfsVtD7rfjmLrjwcSlOYSeUbPNnglh+pw4tW5OInqpdA3DA39IVL+KM8jUbAKVRyaRB4YiCPYbczyDo+KTRcxcq32DOn8tLj4ZQOSI+P5mPOPH8Ih4vVrkbeu240b43Ri8yGHydLzqCljhk0lM3nQhdH4SAdsVZCIi2nm9Q6OQbS/S1/PMY7dQ98EARKUNqcuZmvt15UYac3BhYsSPbjWPWqkb/nfjuDAE5N6aRPyOmk1k074Vu7UskqdF5WswgnCdZnCuoTAiz/rRs1Istz32vBCBv14l7WYasVtA8NhhUbxX+oOIDIr64AeZGm2Pc0ifE9szMorD+9SshlaxKjeqv2v3NtvoZP0RTL8tKulXRSXukin7up8Slb00XMdmMT3SSU1MqN3p/RuOJlCQ/RTeOIw+va9nD/p+OY6EU39csVzqnZdxyLu33N9ir3cYJ9/POfa1KF6fxclf9ul9hmW/jMOvziJXak51c0p83odJ+f60T/8uo3+IrY/dnTkcEn8b+K1Tw/QC5gJiWc+0pdm6Zb179sIn+xd/xeae1GKPqNc1prUt9UQAoVPi9VISGcd+6EWkL86JAthJHH5elW5q9bH7sYjM+2K5/bK/uvj7T31G38hy89kVpF8V83vs/b5KcekQ5myVGGOsg5NIOwXBFlj7KoWpX6kxHn56GOMXlxy7cFj62On7owejl8T7S6NGbNx0/0M3hl+RVe400p/bqtwN93N9K1+afqOeJ53E7GemHdzE72E+0B7at2L3ZQ5x8eJ6fqBS+XLSHcDMFwu48G+8latG+/wIDYlE5lhJW0PmjzMiZNjbhbvhfzEgPuR8p2/t+jxmxHkUFss0VdRfW0H+96LCcM2F0FvybiC1ny5434hhzCUykNdiyOgBUKSP8xEkikFMnwk2d6yJ1mNlHpNDfsytBBBNLGA+cRK9S9MY3R+wDvr0fRonn+vD8AcP4Pl1zOhblLqA4FN5zL7mQ8BS8VoThQofevyisNM1ium0+F7ZmuHySfi8Yp6s3O0Liu+Y0a/E45UZ/fsmDzpca1fxM/+xQ5/jOxkkrgL+V4Mqpon1/uYQPKb1LqTG0HdvBsO9fvYvppZaW1pEVrx6nutlrN5SXfANTYh9mkLyhsM9uzvziIsCvhyjwKtmOfpLDlO/8ODQa2l0HZ3GvIg5ydf6UPhgGH2Dpb6R3Rg4KGJVMYmsOf6t3cairEQgg0zevA0FLF6VF9l9GNiGW4Vr/zgFf+8wJpf6MJYS8e282Nbf+zF8flEtUcMTfkxmkpgYFO8HJ5CU8Xuk1/jbJnTv98IvXlP525XKZVP7ubbCpZcxsH8YM/fUb0yL/KhLjm/Ri9GLqj1T3d/DfKCtqCaZO0KuvtYmPEgE9b/Vb79cm/F5hz5zqwvahOyX59QuXLWZdlX1P1nVFt50ie+LaPOWD5XaRNeaerVwgr3rdkrpODSy/MeIJgoFmlf2nczHNJFRaYHf8bhRfY3Sl1N/ndI8r4gxlj4SVf13Ne1uIqx591X6AVfc1mYGxfe4olp56dLn37Z979cXtICcf9bWL9gS41S/CVO/i7t/kH2Xqtd993d+MT+gXfhazVDnS9V6tbvGd7omtIWNdgZ5yDVKXx1ts33s/rqq3c1EtYDMy10hLWnqJ7cVfezqT9bPdKrS76lNxAq5fx32o2N8KO13U2xZPCf7hHm0iRu2IKDGH3C9uWDEDRGnRGXFmh5EGnGJMpxLbsMptZzUVN82J43Ka2qy/F7VF79/wjSOg6Tim1jevB3VaWor+9gpDum76f0sGNtoWsd381pEHWdrqWdVy74tx54wxftav4f5QFvpjMcdbIBrcBRh2Rzzj9ZRD9dupDFVrNEu/MkARo/LO33zyFg+lEX6N0W43gzC73SFyGFUzNipMLz7ljAXOoTh9/OWbaD20n1kDNMjQO7sJA6/NY7cgRiir9S9T0y0CX6EX/Ram2f3+yDHCcz/pRIp3C9eQPbrRYypfsAVvRg4KF6K8jqpIX81hjyCGP+17Xv3HcboiBtd+UUsqVnNcIv4GRTfGL9uvmdXQOZSBhgScVA1R89diSHntF64EXxlTGzjFNI3GP1o4ya9slmXbfrbR7HXP4mlg1HM5+IIPqkW3iL1R8UMwP2YWnBX8yLwuge4FMe8pSmkiAMX05YxCpzlkD6bA0bGcdLeneaZICKnRHj4TRpZGR72DSAgvit1Y7HcxLzwRQbF/nFE3xDb8EmuHL9W8lmkRAwNPLfRe7QNRsU0j3habqEgynOWY67i20540i1yALN17GcHxWtzmBVl4ujrIVvruC54X5LdmtJIXK8/DifzgfbSvhW7R2wJdL2e8CN4QqSnjzKmBL2G7LVpUesLw+91+v5u+F+IiA/NIZOrJEJZGZyGC+FBny3RKj89jJOnxjBmns6KQtnSXcSPrSL1WhjTvBXdxtwIvXsBgWIa6atexD4cY9NZaqFe9DgMyPOo/OfBcnXfubUVFL/KIXM9hbn3JvXneY6eVn/TFbGkN1UagLuqgOtC6NO7yCbCtsJAA+oil6U5pizkXDP3TS6Kwpdc7+NY/jojts86Ze/LXyq+494DfWmijbA87iA1g/DzokD/swCif1rG3U8nEHAaWG2TfC/Z8nPLJAr529AEsB0Yg8qlRYXLVLBXcSAw4rdVBGzuF7Aow0P3Mm7bYkPmehaFH/XogILeh88DX1Ac18t5VYErIn8jA1dQxLpn/eK/GSzqlcs1LN6YBfoDGGh6rAM78Z2Ox1VNxyvdelaW8siIV29v9S/t6h0QVZkdIPar5SLduvZztcKdlPi3D6vf2j8rpq9X9H2R+bpQ5+YE84F207YVO9dPB/TCdXbDiUFU0kYm4DJX0lYySL0nQsjrw/DXqDd2DwYx4Spi7lpWJWT5rBZRGewfx3Cpk3CzHhEVhldPiqJVHpPpqt4q1E729YlwLx2Gr+5VSKLN6sHjtQqG36+YMtAV5N4bxt5HH0dPrw+H/MOY/DiHtWfCCL+iFmkZET+PhIFbcWRUv5fC9YQo5Jj7JhdQ0PvAzOGk/5DYPtv0q2m9AJIpykyfaGPcHj/8z6vphQgu/DGDmf1pTP5iAC+XR8M2edKNAfW2thUss5zZmBxUbghIX8qIs92QvzKrx4HwkQatWkSFQ1YZ8PuT1bFBTC//Vo8OKKrBnTwHRkUdQfWzW7uN7CfAcH8vuvb7EBLL5fUn0eeRE/M9If+2XHxd+4uRSB4tDdLTDtZWjYt/P3Mb/UrXuZ+tZKVMvmYwdbT6s4cC48Z336sMTliN+UC7ad87dj/zICBSbfH6YjmgOCtgLujD8KtzyNs6iHbpDx6vVNJWrqcwK8LB6GCdkNDlg/+4q3Kn73tRGfxQBJKXNhhIRCajVxi+KohTiIioOfnfBuB7IwXXm0ncfrCMVU3DAzlQ1NnRbblj0D0UwpgoSMWvyYtSqhnm8QD85buNLrhfEC/9MSyKbdNqTW/XHV6BaH0e60XkbBwhl8j7j44jcU/NL+uSSVNk+KtYNWY4WMaKniH3Otzlpgo3/CMB4GoKGf2OWR6Zj0U8OBE0xYEaXG79jpbn3KJzXFDTxAFj8a7n/IiI789+IUp8+uB5Qfg8ItC5PPAPArOfi+rBrSySRReGD25Pm5qux3r019Uf9Ze2UPw8LaphQLB0F3Gd+9lKxPCfydcI5pedP6dPn4aMSqQj5gPtpn0rdl1+DMv23ddmMfdZ5Rp2lVspzF3OIbX2eHW7d/UdRiVtBZkrc020C++CX2QWHnWnz3hWyzqeXWd3v6CP2uXycNQuImqWLEDJMX0nMP1uEL2ublMz8AcomEePkxnrfhldFh2b2+RO96DPP6lGfV2HLh8Cb7qQT2SQV82vIi+Y+yb3wCWbQ4nC1pLDeteujaNn/yGMX6l9rZdoQ54JIXpWFmdTGH0jYbv464ZHFjSvpZGr0fwM34vz67J4Hemr35yQ4D4SRrjUHPNWBvFbTT67ziXiknjJ55YcLmqvIfOGjEvjxoi9UvcAfCPiiIrlc3nZv86HXr3S7UbfQRHfrmSREJWaPEbh3aZWNd29olIpXtOfO7S4UmW77ZVH/Ly8h2ZqObHe/Wzjekr+wiTyXxn/t5CPvvmpD4c/rNfijPlAu2nrwVM8x6OIuPKYGgk7XJUTVnKYOjGOHLyIvRZ0DDR6G3FRSctdyyDzURPtwqV+P0b7i6JCKT5zTVYGK4MFrE8BiQ/koxVcCB9YVw8XInqodaP77+TrCpZtFbKVy9OYFJUseddhVV3z8h4Zh0cUcmc+ypmacgp/ySD5+yKWnhnAgPnC11/Va11d8A2G4bqVxuxZ2QxzDMFBc5QVfw9G9fXGfpexNtX5MY/Z09MofumG72HpkETbyn0spj+sGZfGrM8hFeeObygict0Uxt4Slb6quy0ryJyL6Q/Xjhxr8vFFD7Mn/AgcF5Wbqzmkr8eRrzlGgU2XD8NnPOL4xDBz3VaovzWLyfdkXPLBZ2oB4B0UlYwPZxG9bPSvK11O7+0fNj5zNgOc8GNgnb1iNmzfYYRFZTN/NmYrg5bKdk0SabD23eMm/VhE+q0Ixm+KeH8ugmBpv617P1u5h8IIil8yeW7Odq4UkTo3icydNXG8bTc2LL+H+UDb0XaQXH2jTVhduqCF5FCscGuBEzEtnl7QFjJJ7cKpkNarz/dqkT/WG5r+rnZhEJqnXw7bGtaS36nZDejDeovPiOSshVNVD0ZQ1PC0/SFt4mxMi5mntyNaYJ/x+7ynFqofrUAt10z6qmhyqGEipVH6chquvWqo6TKV/kzDSJce+eI6MmHEvXRci73i11wuvxY+Jh87YB5We1V8txzy2qX5X5nRkpkFbT4R1YIyBrlCWrygFlPxUM6bEd+5+K0cg7r6cQcVYrv0OGsdMruitF5o7pGosZ2pGS38vHw8jEsL8XEvGyb3qZx2pc0+7qBEDbMOV0Sbt+TtlXSJfV4tfErly6fkI0SM7/X+63nb8O6VdcqyhiU/r5ouaNkOz9T1fSOmZqz+aUwsK8pD/eZHp9g4PO5A+0HEjwNyPW4teCauzYu4lDwf1vwypljikqIe2yK3K/JH0w5Ww/ZXzS/HrmYeQVHK4wNaxPGYmqY/ZCtlNrFuvQy6L6hFE/N6HI6OuMX2u/THJNV/3MGqtnBKzvNqEwkRG5fUtzo+kqP29k2cCJbTrft4sirdrmc/O+VBdxMh/be4ng9rMykjr9F/o5hnfTRPjd/DfKCt7GiuIROBnBpavqvNn49owed79cQnP+N6VhRuRALO1s4XyoxnrojPOT27rhb1/KfqZ9eZlU5Ep8mteUciovB0l5W6HVI6Fs0pHUtW7Kg5jdKXU8HUKVM1qPRnyehXtduJMS3wrMwcxd9kAfVMUrstAopR0HJpExlrVetBJiYyUxUnXb2igDqjZW0Xs1bzM1pIfafrXVlIq1ex07TFs/KiWPW6zB5kZrTIkVJ8dmm9R0Tsu8HItxmN0ldH26qKnThHFt81CpQu87POlAeZC9rYcb+6CCwnlS9nnNdbWmfjqfOfZVf6LU0pPf/X4dmWZU4VO+mvD7QFUX4rx7Eacckg4qC+HrF/LZW+RS0mKpXV+30jFbsmJvtz2r7LajMnAppb/7tIQ8djWvZz4/fWr9gJhXltbMioJOFY0vjeuhU7h0nEfv/xMe1CjXSra3I/18qDlr9IatHjXvUbRQXtQFiLpm5XnVOOv0dhPtAe9sh/xAHaEfJ5NNIObgLtYkxf1EpMX9RKTF/USrsnfeUx7ZlD7/UZBDqptd+taQz8rheZDwKN+ysSrUNb97EjIiIiInKy8lkayR4PejuqdrSC3JUkep7rZaWOthwrdkRERETUYVaQTd3G6LujnTW66fdZJJdGER3pqK2mDsGmmLRrMX1RKzF9USsxfVErMX0R7U68Y0dERERERNThWLEjIiIiIiLqcHu++eabHbsP//TTT6t3RERERES0W4g6hnpH24V37IiIiIiIiDrcjg6e8uc//1l//clPfqK/Em0lpi9qJaYvaiWmL2olpi9qJaavncM7dkRERERERB2OFTsiIiIiIqIOx4odERERERFRh2PFjoiIiIiIqMOxYkdERERERNThWLEjIiIiIiLqcKzYERERERERdThW7IiIiIiIiDocK3ZEREREREQdjhU7IiIiIiKiDseKHRERERERUYdjxY6IiIiIiKjDsWJHRERERETU4VixIyIiIiIi6nCs2BEREREREXU4VuyIiIiIiIg6HCt2REREREREHY4VOyIiIiIiog7Hih0REREREVGHY8WOiIiIiIiow7FiR0RERERE1OFYsSMiIiIiIupwrNgRERERERF1OFbsiIiIiIiIOhwrdkRERERERB2OFTsiIiIiIqKOBvz//Redv9Tso30AAAAASUVORK5CYII=;" vertex="1" parent="1">
          <mxGeometry x="20" y="380" width="886" height="176" as="geometry" />
        </mxCell>
        <mxCell id="xm5GE9OnR7mUz4Kwo8KU-58" value="&lt;span style=&quot;font-size: 18px;&quot;&gt;Device Group&lt;/span&gt;" style="text;html=1;strokeColor=none;fillColor=none;align=center;verticalAlign=middle;whiteSpace=wrap;rounded=0;" vertex="1" parent="1">
          <mxGeometry x="270" y="570" width="130" height="30" as="geometry" />
        </mxCell>
        <mxCell id="xm5GE9OnR7mUz4Kwo8KU-59" value="Name" style="text;html=1;strokeColor=none;fillColor=none;align=center;verticalAlign=middle;whiteSpace=wrap;rounded=0;" vertex="1" parent="1">
          <mxGeometry x="85" y="610" width="100" height="30" as="geometry" />
        </mxCell>
        <mxCell id="xm5GE9OnR7mUz4Kwo8KU-60" value="" style="rounded=0;whiteSpace=wrap;html=1;" vertex="1" parent="1">
          <mxGeometry x="235" y="610" width="290" height="30" as="geometry" />
        </mxCell>
        <mxCell id="xm5GE9OnR7mUz4Kwo8KU-61" value="&lt;span style=&quot;font-size: 18px;&quot;&gt;User - Device Group - Management&lt;/span&gt;" style="text;html=1;strokeColor=none;fillColor=none;align=center;verticalAlign=middle;whiteSpace=wrap;rounded=0;" vertex="1" parent="1">
          <mxGeometry x="260" y="680" width="360" height="30" as="geometry" />
        </mxCell>
        <mxCell id="xm5GE9OnR7mUz4Kwo8KU-63" value="Group Name" style="text;html=1;strokeColor=none;fillColor=none;align=center;verticalAlign=middle;whiteSpace=wrap;rounded=0;" vertex="1" parent="1">
          <mxGeometry x="120" y="720" width="100" height="30" as="geometry" />
        </mxCell>
        <mxCell id="xm5GE9OnR7mUz4Kwo8KU-64" value="Dropdown button" style="html=1;shadow=0;dashed=0;shape=mxgraph.bootstrap.rrect;rSize=5;strokeColor=none;strokeWidth=1;fillColor=#6C767D;fontColor=#ffffff;whiteSpace=wrap;align=right;verticalAlign=middle;fontStyle=0;fontSize=14;spacingRight=20;" vertex="1" parent="1">
          <mxGeometry x="270" y="720" width="280" height="40" as="geometry" />
        </mxCell>
        <mxCell id="xm5GE9OnR7mUz4Kwo8KU-65" value="" style="shape=triangle;direction=south;fillColor=#ffffff;strokeColor=none;perimeter=none;" vertex="1" parent="xm5GE9OnR7mUz4Kwo8KU-64">
          <mxGeometry x="1" y="0.5" width="10" height="5" relative="1" as="geometry">
            <mxPoint x="-17" y="-2.5" as="offset" />
          </mxGeometry>
        </mxCell>
        <mxCell id="xm5GE9OnR7mUz4Kwo8KU-66" value="Select Users" style="text;html=1;strokeColor=none;fillColor=none;align=center;verticalAlign=middle;whiteSpace=wrap;rounded=0;" vertex="1" parent="1">
          <mxGeometry x="110" y="790" width="100" height="30" as="geometry" />
        </mxCell>
        <mxCell id="xm5GE9OnR7mUz4Kwo8KU-113" value="" style="rounded=0;whiteSpace=wrap;html=1;" vertex="1" parent="1">
          <mxGeometry x="265" y="790" width="120" height="150" as="geometry" />
        </mxCell>
        <mxCell id="xm5GE9OnR7mUz4Kwo8KU-114" value="" style="rounded=0;whiteSpace=wrap;html=1;" vertex="1" parent="1">
          <mxGeometry x="435" y="790" width="120" height="150" as="geometry" />
        </mxCell>
        <mxCell id="xm5GE9OnR7mUz4Kwo8KU-115" value="&amp;gt;&amp;gt;" style="text;html=1;strokeColor=none;fillColor=none;align=center;verticalAlign=middle;whiteSpace=wrap;rounded=0;" vertex="1" parent="1">
          <mxGeometry x="381" y="820" width="60" height="30" as="geometry" />
        </mxCell>
        <mxCell id="xm5GE9OnR7mUz4Kwo8KU-116" value="&amp;lt;&amp;lt;" style="text;html=1;strokeColor=none;fillColor=none;align=center;verticalAlign=middle;whiteSpace=wrap;rounded=0;" vertex="1" parent="1">
          <mxGeometry x="379" y="860" width="60" height="30" as="geometry" />
        </mxCell>
        <mxCell id="xm5GE9OnR7mUz4Kwo8KU-117" value="" style="shape=image;verticalLabelPosition=bottom;labelBackgroundColor=default;verticalAlign=top;aspect=fixed;imageAspect=0;image=data:image/png,iVBORw0KGgoAAAANSUhEUgAAAoIAAADwCAYAAACUhQX2AAAAAXNSR0IArs4c6QAAAARnQU1BAACxjwv8YQUAAAAJcEhZcwAAFiUAABYlAUlSJPAAAB81SURBVHhe7d1daBtZnvfxv5YH1gN9kYVeVuFJx4+HnotpGGgHBiIzuVgtuYjCXEQmDW3TDb3uZyGrfhomdnrptZMLR56GRumG2fEs7MQbmCCFjbEaniHORYhy0YNlWLADfbEXE1rjdJZo6YYEdmD8XOk5VTpVOlWu0ottJbbO9wOFyiWVVC9H5V+dOqeUaCgyIB4/fuw+Hj9+3H0E9hPlC/1E+UI/Ub4Q58/0IwAAACxDEAQAALAUQRAAAMBSBEEAAABLEQQBAAAsldja2hqYXsPDw8N6DAAAhKn/+XoMaKJGEAAAwFIDdR/BRCLhPg7QKuEAoXyhnyhf6CfKF+JQIwgAAGApgiAAAIClCIIAAACWIggCAABYiiAIAABgKYIgAACApQiCAAAAliIIAgAAWIogCOyLqiwkEu5NWxNvlaSup5rqt8abz6thYV1PPHCM9Ygbrlb1a1+QJyUZf1mfDQADjiAIoDdXxlQoW1CREQBw2BEEAezCnIzF1Hzuu2MTstJouD+N1bic0hMBAPuBIAgg2vmiPPUCmDdU8/pJZXlSlg7sJW4AQDcIgsABYLYfbA1xl1/rUnor9NqotnPrC/7z47eqgXl23Ubx5GwgDM7dC39u52WrXvWeG5fSEz3RE1hmXd/YoY1g1LaLXr+d7R/9zwjpbX8AwOFFEAReMicYHZ0o679MczK2I3w4YeaoTC7rPz1Ou702l2rLE2PGPHlJn9Sju3Eyrd5B+6pmfGZ3y5Y67c1dlpUvg0tcvTenx7Iyfiqpx+M0Q2fUtptLhUKeGybH1BYNKk8cjQyq3e8PADjcCILAS1WVyhU9al6K9WvdVPgwgkr1qhdm8rIWfu3ypORiaricYFX8Rr++MSt7a2k3IiPn9ehyTWp6tOtlM4Jk+YtKIEj622J+RiaO6fEY9Vs5P3RmS0+bn/dNUa1pU3kip2scVWC8OKlip2Js46cl/UoVVFs1iL3tDwA47AiCwMv0pCYbelSWV6TiXSp1LsF6IcTrIPGkJAUdUrKlqVaYU69dm2+OBoOVoYtgtSc9LVtKprwQZq7zekUHSRUlT3eKqlVZ8mrtVGBbfFvXHh6bkBnn89wQt9Jc5/UlPzDmL06IV8+YfHtRijrQ+pe4e9kfADAACILAy3QsLeNe7ZqUZfK1Vpu0He3XVEjxLli6lzSN9mtjXi2WUUNnyr4+osf6pMdlS54a1zV3rcvDrcvCXVy6NgPbj0b8cOdIXVZh7XYr8NVr/ivdS8atZTMuY3uXuHvZHwAwAAiCwEuVlInba602dwYvUPXWsWNDauEOGPtOBbpwO8CuGMtmBK5mTaF5WTi9x0vXu+CH1P3eHwBwsBEEgf0WUytXexTVAcGRkll92dG7jGqaS+3soOC3idsx6Muh/WRcwo0Kbd0tW1LS54zLw7d6uSy8e/lq1HI5g9lusvf9AQCHFUEQ2BdGBwqnQ0G4B+/6QusSqWRlJCasuZc13RDy1G+/5tekHRtpdYR4FBU1XwCn923Kj4Gt0LaLZUu+PaNr3soyOdHDZWGH+rwTejTYc9m79UsrrCVH/FfKRq23y7tt9wcADACCILAvjBoux/KkHNVty9zBCE9yflzSXhA07psXvI2Jefn1RDM4mu3XzJ6uHe6zt2vhdXCG13TvW8f5okx5oW1Xy5aSdKjGLdDRpC2zw4nZW9rrROLc6kVfxjV7Kfs9iZWoexb2sj8AYBCos92B4azOgK0SDpBuytfafPM18UO2UfxGv1jrNE++ql/o+KbYUPEn8nU73rua95/Llp7qiZ2sNVRoMt4zbsirV4b0smweYxljX2O+77z5qU8bxfPevBGD+drA54SH4Lr0tD/2kff+QD9QvhCHGkFgH7mXEo1f3giYX1NH4Z1t+OLnad77b9a8VOr+7q55mVIzb5fSZ802gBH3ItzNspk3pzZrSrvidOww7gdocNsCmrd5cW//EtEJxN0nwXXpaX8AwCGXcNKgHj/0nMs5jgFaJRwglC/0E+UL/UT5QhxqBAEAACxFEAQAALAUQRAAAMBSBEEAAABLEQQBAAAsldja2hqYLkTDw8N6DAAAhKn/+XoMaKJGEAAAwFLcRxDoEuUL/UT5Qj9RvhCHGkEAAABLEQQBAAAsRRAEAACwFEEQAADAUgRBAAAASxEEAQAALEUQBAAAsBRBEAAAwFIWBcGqLCQS7k01E2+VpK6nmuq3xpvPq2FhXU88cIz1SIxL6YmebDgc6zFozP0SM1yt6te+IE9KMv6yPttHee0Hc5sFhpe2n1+MwHpHrmvn4zyAIGoED7WyTF7kYHdoXBlT/6AW1L8qW1Fe90yH+6MTZT0hxC1j0YF74Kh15cQB2DuC4GG3PClLHAwPkTkZe1E1FccmZKXRcH9SqnE5pSe+ZJTX3XNC4GuTKk53ogL3a3accMx9xokFsFcEwQHAwfCAOV+Up14A84ZqXj+pWB6GKK+7U71hhsCsFL8JlrGnpax+zjEnhVsWbGVOLIA9Iwh2KbpNTtxZd11Kb4VeG9WeZX3Bf378VjUwT0+XPNTBMNftQd9sN+YP4UtJxvI7yx2ex6/RCq9n3PbY2X5u3IZ/UqaTs4EwOHcvvKU6l5nqVe+5iEt/gbKkt22HNoJRZTq63O3z/qO89k6tU+GKHpe8rDVWZOKY/lNLvr2iy1gzJK68nWw+oQTKzrq5fULbwChH3hC17vFlMaaNXqh8hsveXrbvXKr72s/WchtD+LvhL2tz3cLz+N+R0LaKW4ed37Pulxd4IdSZ5MBwVid+ldYa6hDZfM35YuOpnmpSZ9T+e+SreqKyNq/nixzy6p1NxueEh/DnVvPRr9vxniZzPbKNbMQ8cesR/3nNofXap43i+ejX+EPgs80htOzfFGNep4b5+LU8iLzljta5fMW/pssyY+y/bCn4Ca0ymm2oENBkbvvAtm6/fwPvvef9R3ntlvc5UcxtFN733Yg9hhnr1PY4FyrTkeXNFVPGO+xLd+hi+wa2g9qn/ri/TeK+Yx3KSI/Lan52YHrs9zI8hLdb/3mfDYRRI9hRVSrembh5yc+v3ZmTMeOMsnp1TE1xOGftode2rQkxL/XMSnctusZlxr8cFFyOnepS+qy5ZNHrEVVLpc2v6eVaU2ulLZelbKyjOuBpc1Lxa5XUZ17Ul7OMz1QHc/dZ+xp7j8jIeT26XJOaHu26zJxM+9u//EWlVdtiltH5mR01RWH1WzmZXG6Oq39czc/7pqhKYFN5IqdrefZ7/1Fe9y4r46daNX27Ym5Pr+3o+oKM+WXI237GuvdSi9sFv9yZ+6jH7Xvi4kzr++CX2RjrS36ZVycQ+rOfigqHTcsrUomcv3Vc9reFUlblKfK7Y34vjW3a+kxvfek4hQNEFc6B4axO/CrFnSm2qC+6/x5+bUOghqDDWZzx2tgzw7gzz65rG8LrYfytly9yPeJE1hqZZ8/BdTbPcM33Nj/TX3dj/YLLYbx/n2tZ9pO3LtE6l6/gdtU1UT2WmdZ2NvZL3HaO3Lfxy+l+Xkz53P3+o7x2y/vsKK31CK6fw1yXwGDsy7jt0BRRLn3Rz8UvT0z5anesa/dcSLisBNbdnbeb72FL5HrELY9Z9gLvbZZpbxsZ2y28HP7779yX/dT8zIH6l499Qo1gJ8fSMu6dNTpnca+1aRPypNasTVDKE0eNNiGJ1tm2URNkyr4+osd6lZJZv5ZELd+NdrUspnqzvVTHXognZCSyhikbmJ4cOaHHWuq1DT0mMpdqbYtE4qh/di5f1ew+K+6xzCRPjevah7KsfNncctV7uuZM8pI+qUfjqM/z98qPRsSsW0pdbkjj9oQ/rT/7j/K6GyOvN/e6s81q7Wq+OgpuB9eTiqx46zefDl2NSEr6nPfZZu3p7u041hk13b1u3+Tbi61avSuF9rWCJt2+z/+OxYg9Lge+O0ZNv099Z71tujwpR/2ypIaU933d674E9gdBsKOkTNw2Ll8YvH/cvV0u2tj/L//JKeNgOCa5L/R4WKARvfHP7WWKCcaDyfjn0BOjzBgnJs3LUOZl4fA/8RdgN/uP8tozM7hu1Kw+dQpRx+eLxonFxULrRCck0OnDD2MvF/sSB4GdQTDmYF57FFfXkJJZt32H2baoJarXmt9+ZMews7ff3qmD4WdGO5XlqPWoyoJZm+K1EzLat/RT3m8jEx66bQ85ANYrui2gEhHauiszRg2N067pVus986f7tyX3d/9RXnt2bKS1vSaWAscbt7ewv3zRJ60D7eRs67jstgXdyem5a9b+efs36ni+78w2maHB7NkNvCwWBUGz+j7ipr5mY2l1yI2+vKQvn7lfYqOhsVdjYx6sH73geoNjEzLT7qBmhBA3cBiXAPuFWgyDU7tl1EL4oW0XZSb5ttdIviyTE34M7HxZ2KE+z98roctwzdtctE5q+rr/KK+9CWwvdfxKRF2JcC6fex2PemA2f7lSCZ3U1qXyhRetospY6PKm2fQgRrCjk2KeIIWaK3Qr9V67E4TgOqyp4/dsN9+VPYnuGAYcRBYFQbOtixLbbkM5Py5pLwia94oK9HI0L/PpdkmBA6rRA868xNW2p+TetD8YtrQCh9FLsh/MXq5mrz5jm+7l/mEHVrhsOUOodmvK+0e0qzKTknQoRGVLU13WVKVkKrInaFWW3J8tM0JGn/cf5bU3qcvB2r5gO0ZnCF4+z55Ldxmqgu0Azd7cwR7mrTLWarOo5vB7b3e5fwLlTs3j9Q5XpaH43i7rWzudWPiMZhaBk//9FrdNnbDu7S/uJ4gDojFAnNXptEqtXmJxw86eXJ3mcXqv+cyeZTuG0HsbvdP8nosdte8VF+5B2Fo2s2dbzOC/X3wvwta26HJdzB54O4ZwD8WDzVvuaF1sX3eIWOdeyownsF1jXhPZw9Zh7t+IwXztnvcf5bVb3ue01bastIbAMUmJ3Q6Gtse58L7rZjnMedpuVz106DHsCPcaDgqVGePzw+UsavDfL65sdPV9MstI++9Z98f8/eF9LhBmXRtB99KucS+yAPf+WTvb8MXP07zHVOAyg/v7ruZlY81tJ9KP9oFBrcuGYU47x3D7oebyq4Nk88/Ye2ntgfOLGlHtltxtbVH7QEUd+KPXeTdlxuxpadZgd8XpABW8L5pH/TMM/i5xn/cf5bVHblmJP4a5+089v5tLn+5xLqINpvue4UvzznKEX+uW14htF+J+D0LL707b8+9hG7XdIU47yh3l3d2nreWNvS/lrsV9z5rlmPaBOCgSThrU44eeU93uGKBVwgFC+UI/DXT5ci6v6+Y3TugjBL14HL8Qh9vHAAAAWIogCAAAYCmCIAAAgKVoIwh0ifKFfqJ8oZ8oX4hDjSAAAIClEltbWwNzejA8PKzHAABAmPqfr8eAJmoEAQAALEUbQaBLlC/0E+UL/UT5QhxqBAEAACxFEAQAALAUQRAAAMBSBEEAAABLEQQBAAAsRRAEAACwFEEQAADAUgRBAAAAS9kbBB8tydlEQhKJs7L0SE/rqCZLGWeehJy9UdPTAKCTTbmWSsj4rbr+uzfb92bkqDruHH23pI5CMf5Qksmj6viUWpDqH/U0AOjA2iBYe1CS1TdHZVRWZfGLTT21g0cVKd1V87wpsvqLsjq0A0An21K9mpOZdf3nLgydzkvxUlLqNyflg19HRcGalK5MS6meksI/z0rqFT0ZADqwNAhuSvlXFZHTMzJzQf1VqnQV6ja/WJSKpGXmo5zIw6JUHuonACDSc9n8fFyyV6r6790akvSVokwn1Uno303KtcCxxwmakzJ5sy7Z36jXqBNVAOiWnUHwYUWK6kA6lcpI5owT6gqy8mBbPxlnUyolFRffG1PzZCSn/i7crqhDMABEqFfk2lsn5MTFDUm/k9UT9+CVtOSXZ2VUquoEtnX5d/t3ecmpoJl8pyiFd0aaEwGgSxYGwW2p3C6oGJeV9I+PyJFTTqiry8LNVXXuHm/7wYoUVHjMnh6TI0dUGLygjvOflGT1O/0CAPDVpfTh38jMclJy5TUp/v0JPX1vhn4yJ4uXR0XW52T686psPynL1PkF2UxOyOLPJ4QYCKBX9gXB7TWp3KiLvDcpmWPqbx3q5EZRVp+4r4iwLWv3ltShfUomTyfV30dkzKlJlCUp3ttd428Ag23oRwW5/3RNfnluP+PZkKQ+WpT8SZHqlWk5+25OSvWkTP9mSbLO8QwAemRdENz+clUWVHab+mlaxTnHEUmfm1aPZRXqYvrjqfC4+okTHjOSfrU56cjprLhz3bwT34sPgKWSkr08LWnnvHG/vZKS6c/zkpKqVB7UJTVflvzpIf0kAPTGsiD4XFZvXVOPU5I51YyBjqFTGTfUxfUEfn63JO5cfnhUhsYkc0k93l2UMp1GALxAQ6//UN7Q4/LKkBADAeyWXUHwu4qs3lCPRs2eywl1H6tT94cFWd1xi4fnUvntknoMhkfnEs3YmVl13r8phd/utUcgAHSrJqWLOXGOSo6qGg/2IgaA7lkVBGsq0LkHzxvj8hfuzaS94XvyN86lX6nLL/9vqCfwoxVZcsKjmnP8L815EvK99IKaQ831qztSofswgBegdmtOpm/WJXlhRTZKE+pktNmLeJNjEIBdSDQUPX7oOeHMEb1Kzq+CfF/ev5uR3KfpiN51z9RBdUFKD6dk5dvrktU1hrUbZ+X7f7sqmQsFSUe0+X72VVEWbm7KVPmZXD9n1hhi0LQvX0Ab6wuSSM1JtvRUVt6ObjjYVfn6Q0nGRyalnMzJna9+KZlXa1J6d8y9h2Bqfk0ql1NcJkYkjl+IpQrFwHBWJ3aVfn+9kXaev3S/8Sc9KWzj01F3/sy/fq2nfN24ftp5z+nG/biZNguNUed9z1xXr8Yga1u+gHaqebfsqCCoJ+zUuXxtNAonndeMNma/NA5I395p5JLO9FQjX407UMF2HL8Qx5pLw81fBUnK7Jmx2DPm0XM5yajH1eVKsyfww7Is3hNJfpyRsbiZ3sxK7ox6vFuWSte/WQwAvWj9TF1qflHmfmIckF7NSEHfaHruZ9f4nWEAPbEkCOpfBUlOSTrV5sLJ62nJuqGu2RN4815RzZmUqdPx4VFkRNLn3fjY/W8WA0APttevybTzM3Un87J4aeflX/dG0/Mp90bTuU+r/OIRgK5ZEQS9XwVJ/v1ZSbfJgU6oG//fU+pxUwqla/Jvnznh8QM5+9dtZ5KRn06JO9dnK3QaAbC//liV/IU5qUpWirdmZTTycDQkqZ9dc280vXk1J/nfcSAC0B2LOosAe0P5Qj9RvtBPlC/Eses+ggAAAPARBAEAACxFEAQAALAUQRAAAMBSBEEAAABLJba2tgamC9Hw8LAeAwAAYep/vh4DmqgRBAAAsBT3EQS6RPlCP1G+0E+UL8ShRhAAAMBSBEEAAABLEQQBAAAsRRAEAACwFEEQAADAUgRBAAAASxEEAQAALEUQBAAAsJS9QfDRkpxNJCSROCtLj/S0jmqylHHmScjZGzU9DQAifLcpSx+Ny9gPmseMxA/GZPyjkvzHc/18D7bvzchR9R5H3y2po1CMP5Rk8qj6nNSCVP+opwFAB9YGwdqDkqy+OSqjsiqLX2zqqR08qkjprprnTZHVX5Sly7kA2MYJZT86Ie/ffC5vfLgi9yv3ZeXDN+T5zUl548fvS/mJfl2Xhk7npXgpKXU1/we/joqCNSldmZZSPSWFf56V1Ct6MgB00hggzup0t0objcKb6rWXio3iBfX4ZkFN6Wzj01H1/tONYimnHkcbhU39BKzQffmC3Z417vyfpCor2Uaxpid5fn+9kVFlKPnx/caf9CRPx/L13/cb00nnNanQsedPjbX5lDtv9jdf62lAEMcvxLGzRvBhRYoPRaZSGcmcyam/C7LyYFs/GWdTKqVNkffG1DwZyam/C7cr0mkuALapSe3fvydyflzS/0tP8rx+VibPi9Q/qfZ+ReGVtOSXZ2VUqjJzoXX5d/t3ecldqUrynaIU3hlpTgSALlkYBLelcrugDsJZSf/4iBw55YS6uizcXJV2TXe2H6xIQYXH7OkxOXJEhcELzsG8JKvf6RcAgGtUctWvpXF7QpJ6yn4Z+smcLF4eFVmfk+nPq7L9pCxT5xdkMzkhiz+fEGIggF7ZFwS316Ryoy7y3qRkjqm/daiTG0VZjW23sy1r95ZUXJySydPOof2IjDk1ibIkxXvqvQCgG9+p48+yejw/ssvQNiSpjxYlf1KkemVazr6bk1I9KdO/WZKsczwDgB5ZFwS3v1yVBZXdpn6aVnHOcUTS56bVY1mFupj+eCo8rn7ihMeMpF9tTjpyOivuXDfvxPfiAwDftlR/kVenj0nJvZPZfW3hKymZ/jwvKalK5UFdUvNlyZ8e0k8CQG8sC4LPZfXWNfU4JZlTzRjoGDqVcUNdXE/g53dL4s7lh0dlaEwyl9Tj3UUpP2xOAoA4tZtTkr26KckLS5L/aev4sxtDr/9Q3tDj8sqQEAMB7JZdQfC7iqzeUI9GzZ7LCXUfq/PzhwVZXdfTfM+l8tsl9RgMj84lmrEzs+qsflMKv63qaQAQti3/8etJGXu3JPJOUdZ+lWmdUO5KTUoXc+IclRxVNX6Nk1EAu5Rwug7r8UPPuWmrI26VajfOyvf/dlX/FS358X2p/TzdOsN2bjz9g/el7VzJWblfy0ua0/KB1ql8ATs9l+on45L9x4p8772i3P+XCRn5H/qpkG7LV+2WCpUTKlReWJHVUyuSUeP1k3nZeDAroxyDEIPjF+JYFASdXwX5vrx/NyO5T9MRDbWfyUZpQUoPp2Tl2+uS1TWGXnjMXChIOqJ197OvirJwc1Omys/k+rm9nefjYONAit7UZPXDSTn7T1VJqRPMVXWC2e4I0VX5+kNJxkcmpZzMyZ2vfimZV2tSendMJm86bQXXpHI5xWViROL4hViqUAwMZ3ViV+n31xtp5/lLO2/k6mneMFoamX/1bsr6deP6aec9pxv342baLDRGnfc9c129GoOsbfkCAr5urLw3ospLspH++VrjmZ7aTufytdEonHReM9qY/dI4IH17p5HTN5rOV+MOVLAdxy/EsaaN4OYXi1KRpMyeGYs9Yx49l5OMelxdrjR7Aj8sy+I953JxRsbiZnozK7kz6vFuWSpd/2YxgEFW+/UHMn6j5vbovfNxao9tAh3bUr2ak5l1FffmF2XuJ8YB6dWMFPSNpud+do3fGQbQE0suDW/KtdETMlPv1JbPu3w8KoXNDUnfOyEnPnoqs5Wa5P86/oKLd/l49NMN2bg0qqdi0HBpBV15viof/PCsLNZHZeLjSTnxF3p6wA8leykTaKLSrnxtry9IOjUn1di2gE5QTMvYlaqMXl6TtXkuESOI4xdiqUIxMJzViVqlP1VmG0k1PTm/pqfEe1aect8jeanQ+Afncksy3+g417crjSnns5Oz8ZeQcejFlS8goJr3y0r8sPO44j23w3+vNWad30aP+u1ik3pdPurSMaDEli9Yz6pew8BeUL7QT5Qv9BPlC3Hs+4k5AAAAuAiCAAAAliIIAgAAWIogCAAAYCmCIAAAgKUSW1tbA9OFaHh4WI8BAIAw9T9fjwFN1AgCAABYivsIAl2ifKGfKF/oJ8oX4lAjCAAAYCmCIAAAgKUIggAAAJYiCAIAAFiKIAgAAGApgiAAAIClCIIAAACWIggCAABYiiAIAABgKYIgAACApQiCAAAAliIIAgAAWIogCAAAYCmCIAAAgKUIggAAAJYiCAIAAFiKIAgAAGApgiAAAIClCIIAAACWIggCAABYiiAIAABgKYIgAACApQiCAAAAliIIAgAAWIogCAAAYCmCIAAAgKUIggAAAJYiCAIAAFiKIAgAAGCpxNbWVkOPH3rDw8N6DAAAhKn/+XoMaKJGEAAAwFKJhqLHD73Hjx+7j8ePH3cfgf1E+UI/Ub7QT5QvxKFGEAAAwFIEQQAAAEsRBAEAACxFEAQAALAUQRAAAMBSBEEAAABLEQQBAAAsRRAEAACwFEEQAADAUgRBAAAASxEEAQAALEUQBAAAsBRBEAAAwFIEQQAAAEsRBAEAACxFEAQAALAUQRAAAMBSBEEAAABLEQQBAAAsRRAEAACwFEEQAADAUgRBAAAASxEEAQAALEUQBAAAsBRBEAAAwFIEQQAAAEsRBAEAACxFEAQAALAUQRAAAMBSia2trYYeBwAAgEWoEQQAALBUoqHo8UPv8ePH7uPx48fdR2A/Ub7QT5Qv9BPlC3GoEQQAALAUQRAAAMBSBEEAAABLEQQBAAAsRRAEAACwFEEQAADAUgRBAAAASxEEAQAALEUQBAAAsBRBEAAAwFIEQQAAAEsRBAEAACxFEAQAALAUQRAAAMBSBEEAAABLEQQBAAAsRRAEAACwFEEQAADAUgRBAAAASxEEAQAALEUQBAAAsBRBEAAAwFIEQQAAAEsRBAEAACxFEAQAALAUQRAAAMBSBEEAAABLEQQBAAAsRRAEAACwVGJra6uhxwEAAGARgiDQg9Qv/lyPAf1R/fD/6TEA6L9EQ9Hjh97jx4/dx+PHj7uPwH5yyhdBEP32n4W/0mPA/uH/I+LQRhAAAMBS1AgCXQrXCFJzg/3yP2f+S49RrtAf/H9EHGoEAQAALEUQBAAAsBRBEAAAwFIEQQAAAEsRBAEAAKwk8v8BUzBCWedg7r4AAAAASUVORK5CYII=;" vertex="1" parent="1">
          <mxGeometry x="140" y="970" width="642" height="240" as="geometry" />
        </mxCell>
        <mxCell id="xm5GE9OnR7mUz4Kwo8KU-118" value="&lt;font style=&quot;font-size: 18px;&quot;&gt;Resignation&lt;/font&gt;" style="text;html=1;strokeColor=none;fillColor=none;align=center;verticalAlign=middle;whiteSpace=wrap;rounded=0;" vertex="1" parent="1">
          <mxGeometry x="395" y="1270" width="130" height="30" as="geometry" />
        </mxCell>
        <mxCell id="xm5GE9OnR7mUz4Kwo8KU-119" value="Employee Name" style="text;html=1;strokeColor=none;fillColor=none;align=center;verticalAlign=middle;whiteSpace=wrap;rounded=0;" vertex="1" parent="1">
          <mxGeometry x="160" y="1330" width="100" height="30" as="geometry" />
        </mxCell>
        <mxCell id="xm5GE9OnR7mUz4Kwo8KU-120" value="" style="rounded=0;whiteSpace=wrap;html=1;fillColor=#f5f5f5;fontColor=#333333;strokeColor=#666666;" vertex="1" parent="1">
          <mxGeometry x="310" y="1330" width="290" height="30" as="geometry" />
        </mxCell>
        <mxCell id="xm5GE9OnR7mUz4Kwo8KU-121" value="Read only" style="text;html=1;strokeColor=none;fillColor=none;align=center;verticalAlign=middle;whiteSpace=wrap;rounded=0;" vertex="1" parent="1">
          <mxGeometry x="610" y="1320" width="100" height="30" as="geometry" />
        </mxCell>
        <mxCell id="xm5GE9OnR7mUz4Kwo8KU-122" value="Reason" style="text;html=1;strokeColor=none;fillColor=none;align=center;verticalAlign=middle;whiteSpace=wrap;rounded=0;" vertex="1" parent="1">
          <mxGeometry x="150" y="1390" width="100" height="30" as="geometry" />
        </mxCell>
        <mxCell id="xm5GE9OnR7mUz4Kwo8KU-123" value="" style="rounded=0;whiteSpace=wrap;html=1;" vertex="1" parent="1">
          <mxGeometry x="310" y="1390" width="290" height="50" as="geometry" />
        </mxCell>
        <mxCell id="xm5GE9OnR7mUz4Kwo8KU-124" value="Start Date" style="text;html=1;strokeColor=none;fillColor=none;align=center;verticalAlign=middle;whiteSpace=wrap;rounded=0;" vertex="1" parent="1">
          <mxGeometry x="160" y="1470" width="100" height="30" as="geometry" />
        </mxCell>
        <mxCell id="xm5GE9OnR7mUz4Kwo8KU-125" value="" style="rounded=0;whiteSpace=wrap;html=1;" vertex="1" parent="1">
          <mxGeometry x="310" y="1470" width="290" height="30" as="geometry" />
        </mxCell>
        <mxCell id="xm5GE9OnR7mUz4Kwo8KU-127" value="Last working Date Calculated" style="text;html=1;strokeColor=none;fillColor=none;align=center;verticalAlign=middle;whiteSpace=wrap;rounded=0;" vertex="1" parent="1">
          <mxGeometry x="80" y="1530" width="180" height="30" as="geometry" />
        </mxCell>
        <mxCell id="xm5GE9OnR7mUz4Kwo8KU-128" value="" style="rounded=0;whiteSpace=wrap;html=1;fillColor=#f5f5f5;fontColor=#333333;strokeColor=#666666;" vertex="1" parent="1">
          <mxGeometry x="310" y="1530" width="290" height="30" as="geometry" />
        </mxCell>
        <mxCell id="xm5GE9OnR7mUz4Kwo8KU-129" value="Actual&amp;nbsp; Last Working day" style="text;html=1;strokeColor=none;fillColor=none;align=center;verticalAlign=middle;whiteSpace=wrap;rounded=0;" vertex="1" parent="1">
          <mxGeometry x="80" y="1600" width="180" height="30" as="geometry" />
        </mxCell>
        <mxCell id="xm5GE9OnR7mUz4Kwo8KU-130" value="" style="rounded=0;whiteSpace=wrap;html=1;" vertex="1" parent="1">
          <mxGeometry x="310" y="1600" width="290" height="30" as="geometry" />
        </mxCell>
        <mxCell id="xm5GE9OnR7mUz4Kwo8KU-131" value="Read only" style="text;html=1;strokeColor=none;fillColor=none;align=center;verticalAlign=middle;whiteSpace=wrap;rounded=0;" vertex="1" parent="1">
          <mxGeometry x="610" y="1530" width="100" height="30" as="geometry" />
        </mxCell>
        <mxCell id="xm5GE9OnR7mUz4Kwo8KU-132" value="&lt;font style=&quot;font-size: 18px;&quot;&gt;Withdraw Resignation&lt;/font&gt;" style="text;html=1;strokeColor=none;fillColor=none;align=center;verticalAlign=middle;whiteSpace=wrap;rounded=0;" vertex="1" parent="1">
          <mxGeometry x="355" y="1680" width="215" height="30" as="geometry" />
        </mxCell>
        <mxCell id="xm5GE9OnR7mUz4Kwo8KU-133" value="Employee Name" style="text;html=1;strokeColor=none;fillColor=none;align=center;verticalAlign=middle;whiteSpace=wrap;rounded=0;" vertex="1" parent="1">
          <mxGeometry x="120" y="1740" width="100" height="30" as="geometry" />
        </mxCell>
        <mxCell id="xm5GE9OnR7mUz4Kwo8KU-134" value="" style="rounded=0;whiteSpace=wrap;html=1;fillColor=#f5f5f5;fontColor=#333333;strokeColor=#666666;" vertex="1" parent="1">
          <mxGeometry x="270" y="1740" width="290" height="30" as="geometry" />
        </mxCell>
        <mxCell id="xm5GE9OnR7mUz4Kwo8KU-135" value="Read only" style="text;html=1;strokeColor=none;fillColor=none;align=center;verticalAlign=middle;whiteSpace=wrap;rounded=0;" vertex="1" parent="1">
          <mxGeometry x="570" y="1730" width="100" height="30" as="geometry" />
        </mxCell>
        <mxCell id="xm5GE9OnR7mUz4Kwo8KU-136" value="Reason" style="text;html=1;strokeColor=none;fillColor=none;align=center;verticalAlign=middle;whiteSpace=wrap;rounded=0;" vertex="1" parent="1">
          <mxGeometry x="110" y="1800" width="100" height="30" as="geometry" />
        </mxCell>
        <mxCell id="xm5GE9OnR7mUz4Kwo8KU-137" value="" style="rounded=0;whiteSpace=wrap;html=1;fillColor=#f5f5f5;fontColor=#333333;strokeColor=#666666;" vertex="1" parent="1">
          <mxGeometry x="270" y="1800" width="290" height="50" as="geometry" />
        </mxCell>
        <mxCell id="xm5GE9OnR7mUz4Kwo8KU-138" value="Start Date" style="text;html=1;strokeColor=none;fillColor=none;align=center;verticalAlign=middle;whiteSpace=wrap;rounded=0;" vertex="1" parent="1">
          <mxGeometry x="120" y="1880" width="100" height="30" as="geometry" />
        </mxCell>
        <mxCell id="xm5GE9OnR7mUz4Kwo8KU-139" value="" style="rounded=0;whiteSpace=wrap;html=1;fillColor=#f5f5f5;fontColor=#333333;strokeColor=#666666;" vertex="1" parent="1">
          <mxGeometry x="270" y="1880" width="290" height="30" as="geometry" />
        </mxCell>
        <mxCell id="xm5GE9OnR7mUz4Kwo8KU-140" value="" style="rounded=0;whiteSpace=wrap;html=1;fillColor=#f5f5f5;fontColor=#333333;strokeColor=#666666;" vertex="1" parent="1">
          <mxGeometry x="270" y="1940" width="290" height="30" as="geometry" />
        </mxCell>
        <mxCell id="xm5GE9OnR7mUz4Kwo8KU-141" value="" style="rounded=0;whiteSpace=wrap;html=1;fillColor=#f5f5f5;fontColor=#333333;strokeColor=#666666;" vertex="1" parent="1">
          <mxGeometry x="270" y="2010" width="290" height="30" as="geometry" />
        </mxCell>
        <mxCell id="xm5GE9OnR7mUz4Kwo8KU-142" value="Read only" style="text;html=1;strokeColor=none;fillColor=none;align=center;verticalAlign=middle;whiteSpace=wrap;rounded=0;" vertex="1" parent="1">
          <mxGeometry x="570" y="1940" width="100" height="30" as="geometry" />
        </mxCell>
        <mxCell id="xm5GE9OnR7mUz4Kwo8KU-143" value="Actual&amp;nbsp; Last Working day" style="text;html=1;strokeColor=none;fillColor=none;align=center;verticalAlign=middle;whiteSpace=wrap;rounded=0;" vertex="1" parent="1">
          <mxGeometry x="90" y="2010" width="180" height="30" as="geometry" />
        </mxCell>
        <mxCell id="xm5GE9OnR7mUz4Kwo8KU-144" value="Last working Date Calculated" style="text;html=1;strokeColor=none;fillColor=none;align=center;verticalAlign=middle;whiteSpace=wrap;rounded=0;" vertex="1" parent="1">
          <mxGeometry x="80" y="1950" width="180" height="30" as="geometry" />
        </mxCell>
        <mxCell id="xm5GE9OnR7mUz4Kwo8KU-146" value="Reason for Withdrawl" style="text;html=1;strokeColor=none;fillColor=none;align=center;verticalAlign=middle;whiteSpace=wrap;rounded=0;" vertex="1" parent="1">
          <mxGeometry x="70" y="2060" width="150" height="30" as="geometry" />
        </mxCell>
        <mxCell id="xm5GE9OnR7mUz4Kwo8KU-147" value="" style="rounded=0;whiteSpace=wrap;html=1;" vertex="1" parent="1">
          <mxGeometry x="270" y="2060" width="290" height="30" as="geometry" />
        </mxCell>
        <mxCell id="xm5GE9OnR7mUz4Kwo8KU-150" value="Withdraw" style="rounded=1;fillColor=#0057D8;align=center;strokeColor=none;html=1;whiteSpace=wrap;fontColor=#ffffff;fontSize=12;sketch=0;" vertex="1" parent="1">
          <mxGeometry x="366" y="2120" width="86" height="33" as="geometry" />
        </mxCell>
        <mxCell id="xm5GE9OnR7mUz4Kwo8KU-152" value="&lt;font style=&quot;font-size: 18px;&quot;&gt;Checklist Generation Screen&lt;/font&gt;" style="text;html=1;strokeColor=none;fillColor=none;align=center;verticalAlign=middle;whiteSpace=wrap;rounded=0;" vertex="1" parent="1">
          <mxGeometry x="245" y="2190" width="340" height="30" as="geometry" />
        </mxCell>
        <mxCell id="xm5GE9OnR7mUz4Kwo8KU-153" value="" style="rounded=0;whiteSpace=wrap;html=1;fillColor=#f5f5f5;fontColor=#333333;strokeColor=#666666;" vertex="1" parent="1">
          <mxGeometry x="300" y="2240" width="290" height="30" as="geometry" />
        </mxCell>
        <mxCell id="xm5GE9OnR7mUz4Kwo8KU-154" value="User Name" style="text;html=1;strokeColor=none;fillColor=none;align=center;verticalAlign=middle;whiteSpace=wrap;rounded=0;" vertex="1" parent="1">
          <mxGeometry x="120" y="2240" width="180" height="30" as="geometry" />
        </mxCell>
        <mxCell id="xm5GE9OnR7mUz4Kwo8KU-155" value="" style="rounded=0;whiteSpace=wrap;html=1;fillColor=#f5f5f5;fontColor=#333333;strokeColor=#666666;" vertex="1" parent="1">
          <mxGeometry x="310" y="2308" width="290" height="30" as="geometry" />
        </mxCell>
        <mxCell id="xm5GE9OnR7mUz4Kwo8KU-156" value="User Name" style="text;html=1;strokeColor=none;fillColor=none;align=center;verticalAlign=middle;whiteSpace=wrap;rounded=0;" vertex="1" parent="1">
          <mxGeometry x="130" y="2308" width="180" height="30" as="geometry" />
        </mxCell>
      </root>
    </mxGraphModel>
  </diagram>
</mxfile>
